<svg xmlns="http://www.w3.org/2000/svg" xmlns:xlink="http://www.w3.org/1999/xlink" width="1024" zoomAndPan="magnify" viewBox="0 0 768 767.999994" height="1024" preserveAspectRatio="xMidYMid meet" version="1.0"><path fill="#bdcd0b" d="M 71.832031 462.742188 C 71.832031 463.53125 71.753906 464.308594 71.601562 465.078125 C 71.449219 465.851562 71.222656 466.597656 70.921875 467.324219 C 70.621094 468.050781 70.25 468.742188 69.8125 469.394531 C 69.378906 470.046875 68.882812 470.652344 68.324219 471.210938 C 67.769531 471.765625 67.164062 472.261719 66.511719 472.699219 C 65.855469 473.136719 65.167969 473.503906 64.441406 473.804688 C 63.714844 474.105469 62.964844 474.332031 62.195312 474.484375 C 61.425781 474.640625 60.644531 474.714844 59.859375 474.714844 C 59.074219 474.714844 58.296875 474.640625 57.523438 474.484375 C 56.753906 474.332031 56.003906 474.105469 55.277344 473.804688 C 54.550781 473.503906 53.863281 473.136719 53.207031 472.699219 C 52.554688 472.261719 51.949219 471.765625 51.394531 471.210938 C 50.839844 470.652344 50.34375 470.046875 49.90625 469.394531 C 49.46875 468.742188 49.101562 468.050781 48.800781 467.324219 C 48.5 466.597656 48.269531 465.851562 48.117188 465.078125 C 47.964844 464.308594 47.886719 463.53125 47.886719 462.742188 C 47.886719 461.957031 47.964844 461.179688 48.117188 460.410156 C 48.269531 459.636719 48.5 458.890625 48.800781 458.164062 C 49.101562 457.4375 49.46875 456.746094 49.90625 456.09375 C 50.34375 455.4375 50.839844 454.835938 51.394531 454.277344 C 51.949219 453.722656 52.554688 453.226562 53.207031 452.789062 C 53.863281 452.351562 54.550781 451.984375 55.277344 451.683594 C 56.003906 451.382812 56.753906 451.15625 57.523438 451.003906 C 58.296875 450.847656 59.074219 450.773438 59.859375 450.773438 C 60.644531 450.773438 61.425781 450.847656 62.195312 451.003906 C 62.964844 451.15625 63.714844 451.382812 64.441406 451.683594 C 65.167969 451.984375 65.855469 452.351562 66.511719 452.789062 C 67.164062 453.226562 67.769531 453.722656 68.324219 454.277344 C 68.882812 454.835938 69.378906 455.4375 69.8125 456.09375 C 70.25 456.746094 70.621094 457.4375 70.921875 458.164062 C 71.222656 458.890625 71.449219 459.636719 71.601562 460.410156 C 71.753906 461.179688 71.832031 461.957031 71.832031 462.742188 Z M 71.832031 462.742188 " fill-opacity="1" fill-rule="nonzero"/><path fill="#bdcd0b" d="M 622.539062 618.976562 L 622.539062 606.40625 C 622.539062 586.652344 606.378906 570.492188 586.625 570.492188 L 466.90625 570.492188 C 447.152344 570.492188 430.988281 586.652344 430.988281 606.40625 L 430.988281 618.976562 C 414.230469 621.972656 401.058594 636.335938 401.058594 654.296875 L 401.058594 678.238281 C 401.058594 684.824219 406.449219 690.210938 413.03125 690.210938 L 640.5 690.210938 C 647.082031 690.210938 652.472656 684.824219 652.472656 678.238281 L 652.472656 654.296875 C 652.472656 636.335938 639.300781 621.972656 622.539062 618.976562 Z M 598.597656 618.378906 L 454.933594 618.378906 L 454.933594 606.40625 C 454.933594 599.824219 460.320312 594.433594 466.90625 594.433594 L 586.625 594.433594 C 593.210938 594.433594 598.597656 599.824219 598.597656 606.40625 Z M 598.597656 618.378906 " fill-opacity="1" fill-rule="nonzero"/><path fill="#bdcd0b" d="M 250.214844 395.101562 C 271.164062 394.503906 331.621094 391.511719 344.792969 385.523438 C 362.152344 377.742188 369.335938 357.390625 362.75 337.039062 C 354.96875 314.292969 335.8125 309.503906 319.652344 305.3125 C 319.652344 305.3125 241.234375 284.960938 219.085938 280.171875 C 206.515625 277.179688 181.375 271.191406 164.015625 287.355469 L 113.136719 331.652344 C 111.339844 331.652344 109.542969 331.050781 107.746094 331.050781 L 11.972656 331.050781 C 5.386719 331.050781 0 336.441406 0 343.023438 C 0 349.609375 5.386719 354.996094 11.972656 354.996094 L 95.777344 354.996094 L 95.777344 498.660156 L 53.875 498.660156 C 47.289062 498.660156 41.902344 504.046875 41.902344 510.632812 C 41.902344 517.214844 47.289062 522.605469 53.875 522.605469 L 107.746094 522.605469 C 111.9375 522.605469 116.128906 520.210938 117.921875 516.617188 C 117.921875 516.617188 167.605469 516.617188 167.605469 516.617188 C 174.191406 516.617188 179.578125 511.230469 179.578125 504.644531 L 179.578125 465.136719 C 217.289062 446.582031 241.234375 410.066406 250.214844 395.101562 Z M 163.417969 446.582031 C 158.628906 448.378906 155.636719 452.566406 155.636719 457.957031 L 155.636719 492.671875 L 119.71875 492.671875 L 119.71875 357.988281 L 180.777344 304.714844 C 190.355469 297.53125 204.71875 301.722656 213.699219 303.515625 C 236.445312 308.304688 314.261719 328.660156 314.261719 328.660156 C 328.628906 332.25 337.011719 334.644531 340.601562 344.222656 C 342.996094 351.40625 341.800781 360.382812 335.214844 363.375 C 325.636719 367.566406 255.003906 371.160156 243.628906 371.160156 C 238.839844 371.160156 234.648438 373.554688 232.855469 377.742188 C 231.65625 378.941406 206.515625 428.625 163.417969 446.582031 Z M 163.417969 446.582031 " fill-opacity="1" fill-rule="nonzero"/><path fill="#bdcd0b" d="M 601.589844 508.238281 C 599.792969 513.027344 597.398438 517.816406 594.40625 522.003906 L 588.421875 529.785156 C 583.632812 536.96875 576.449219 542.355469 569.265625 546.546875 L 586.625 546.546875 C 600.394531 546.546875 612.363281 551.335938 622.539062 558.519531 L 622.539062 527.390625 L 609.371094 515.421875 C 606.976562 513.027344 603.984375 510.632812 601.589844 508.238281 Z M 601.589844 508.238281 " fill-opacity="1" fill-rule="nonzero"/><path fill="#bdcd0b" d="M 407.046875 602.21875 C 408.839844 571.089844 435.179688 546.546875 466.90625 546.546875 L 520.78125 546.546875 C 517.785156 545.351562 515.390625 543.554688 512.996094 541.757812 C 512.996094 541.757812 512.398438 541.160156 511.203125 540.5625 C 510.601562 540.5625 510.003906 540.5625 508.808594 540.5625 L 329.226562 540.5625 C 322.644531 540.5625 317.257812 535.175781 317.257812 528.589844 C 317.257812 522.003906 322.644531 516.617188 329.226562 516.617188 L 480.074219 516.617188 C 463.3125 503.449219 445.953125 490.878906 445.953125 490.878906 C 442.363281 487.886719 438.773438 484.890625 435.777344 480.703125 L 329.226562 480.703125 C 322.644531 480.703125 317.257812 475.316406 317.257812 468.730469 C 317.257812 462.144531 322.644531 456.757812 329.226562 456.757812 L 426.199219 456.757812 C 423.808594 444.785156 426.199219 432.214844 432.1875 420.84375 L 329.226562 420.84375 C 324.441406 420.84375 320.847656 418.449219 319.050781 414.855469 C 305.882812 416.054688 288.523438 417.847656 263.980469 419.046875 C 256.199219 431.019531 244.226562 446.582031 228.066406 460.949219 C 226.867188 462.144531 225.671875 462.742188 224.472656 463.941406 L 223.277344 465.136719 C 220.882812 466.933594 218.488281 469.328125 216.09375 471.125 L 216.09375 488.484375 C 211.902344 487.886719 207.714844 487.285156 204.121094 486.089844 L 204.121094 504.644531 C 204.121094 506.441406 204.121094 508.238281 203.523438 510.03125 C 207.113281 510.632812 210.707031 511.230469 214.296875 511.828125 C 214.894531 511.828125 215.496094 511.828125 216.09375 511.828125 L 216.09375 654.296875 C 216.09375 674.046875 232.253906 690.210938 252.007812 690.210938 L 379.511719 690.210938 C 378.910156 688.414062 378.3125 686.621094 377.714844 684.824219 C 377.714844 684.824219 377.714844 684.226562 377.714844 684.226562 C 377.117188 682.429688 377.117188 680.632812 377.117188 678.238281 L 377.117188 654.296875 C 377.117188 632.148438 389.089844 612.992188 407.046875 602.21875 Z M 407.046875 602.21875 " fill-opacity="1" fill-rule="nonzero"/><path fill="#bdcd0b" d="M 320.25 280.769531 C 322.644531 278.375 325.636719 277.179688 329.226562 277.179688 L 508.808594 277.179688 C 515.390625 277.179688 520.78125 282.566406 520.78125 289.152344 C 520.78125 295.734375 515.390625 301.121094 508.808594 301.121094 L 366.941406 301.121094 C 374.722656 307.707031 381.304688 316.6875 385.496094 329.855469 C 386.09375 332.25 387.292969 334.644531 387.292969 337.039062 L 508.808594 337.039062 C 510.601562 337.039062 512.996094 337.636719 514.792969 338.835938 L 522.574219 328.058594 C 518.984375 313.09375 521.976562 296.933594 531.554688 283.761719 L 537.539062 275.980469 C 547.714844 262.214844 563.878906 253.832031 581.238281 253.832031 C 593.210938 253.832031 603.984375 257.425781 613.5625 264.609375 C 613.5625 264.609375 615.359375 265.804688 620.148438 269.996094 C 620.746094 270.59375 621.941406 271.191406 623.140625 272.390625 L 623.140625 198.761719 C 623.140625 195.769531 621.941406 192.777344 619.546875 190.382812 L 492.046875 59.289062 C 489.652344 56.894531 487.257812 55.699219 483.667969 55.699219 L 251.410156 55.699219 C 231.65625 55.699219 215.496094 71.859375 215.496094 91.613281 L 215.496094 255.03125 C 218.488281 255.628906 221.480469 256.226562 223.875 256.828125 C 244.226562 261.015625 302.292969 276.582031 320.25 280.769531 Z M 490.847656 96.402344 L 581.835938 187.390625 L 502.820312 187.390625 C 496.238281 187.390625 490.847656 182 490.847656 175.417969 Z M 490.847656 96.402344 " fill-opacity="1" fill-rule="nonzero"/><path fill="#bdcd0b" d="M 450.742188 396.898438 C 457.925781 390.914062 466.90625 386.722656 476.484375 385.523438 C 477.679688 385.523438 478.878906 384.925781 480.074219 384.925781 L 497.433594 360.984375 L 388.488281 360.984375 C 386.695312 374.75 380.109375 387.320312 369.933594 396.898438 Z M 450.742188 396.898438 " fill-opacity="1" fill-rule="nonzero"/><path fill="#bdcd0b" d="M 599.792969 441.792969 L 609.371094 428.625 L 747.648438 516.617188 C 753.035156 520.210938 760.816406 518.414062 764.410156 513.027344 C 768 507.640625 766.203125 499.855469 760.816406 496.265625 L 623.738281 408.871094 L 633.316406 395.699219 C 635.710938 396.300781 638.105469 396.898438 641.097656 396.898438 C 650.675781 396.898438 659.652344 392.109375 665.042969 384.328125 L 671.027344 376.546875 C 680.605469 363.375 677.613281 344.222656 665.042969 334.046875 C 665.042969 334.046875 598.597656 283.164062 598.597656 283.164062 C 585.429688 272.988281 566.273438 275.980469 556.695312 289.75 L 550.710938 297.53125 C 543.527344 307.707031 543.527344 321.476562 549.511719 331.652344 L 492.644531 410.066406 C 489.054688 408.871094 484.863281 408.871094 480.671875 409.46875 C 472.890625 410.664062 465.707031 414.855469 460.917969 421.441406 L 454.933594 429.222656 C 445.355469 442.390625 448.347656 461.546875 460.917969 471.722656 C 460.917969 471.722656 527.363281 522.605469 527.363281 522.605469 C 540.53125 532.78125 559.6875 529.785156 569.265625 516.019531 L 575.25 508.238281 C 582.433594 498.0625 582.433594 484.292969 576.449219 474.117188 L 586.027344 460.949219 C 586.027344 460.949219 746.449219 608.800781 746.449219 609.398438 C 751.238281 613.589844 759.019531 613.589844 763.210938 608.800781 C 768 604.011719 767.402344 596.230469 762.613281 592.039062 Z M 555.5 494.46875 C 555.5 494.46875 549.511719 502.25 549.511719 502.25 C 547.714844 504.644531 544.125 505.246094 541.730469 503.449219 L 475.285156 452.566406 C 472.292969 450.171875 471.695312 445.984375 474.089844 442.992188 C 474.089844 442.992188 480.074219 435.207031 480.074219 435.207031 C 481.871094 432.8125 485.460938 432.214844 487.855469 434.011719 L 554.300781 484.890625 C 556.695312 486.6875 557.292969 491.476562 555.5 494.46875 Z M 571.0625 320.875 C 568.070312 318.480469 567.46875 314.292969 569.863281 311.300781 L 575.851562 303.515625 C 577.644531 301.121094 581.238281 300.523438 583.632812 302.320312 L 650.078125 353.199219 C 653.070312 355.59375 653.667969 359.785156 651.273438 362.777344 C 651.273438 362.777344 645.289062 370.558594 645.289062 370.558594 C 643.492188 372.953125 639.898438 373.554688 637.503906 371.757812 Z M 571.0625 320.875 " fill-opacity="1" fill-rule="nonzero"/><path fill="#f2b076" d="M 71.832031 462.742188 C 71.832031 463.53125 71.753906 464.308594 71.601562 465.078125 C 71.449219 465.851562 71.222656 466.597656 70.921875 467.324219 C 70.621094 468.050781 70.25 468.742188 69.8125 469.394531 C 69.378906 470.046875 68.882812 470.652344 68.324219 471.210938 C 67.769531 471.765625 67.164062 472.261719 66.511719 472.699219 C 65.855469 473.136719 65.167969 473.503906 64.441406 473.804688 C 63.714844 474.105469 62.964844 474.332031 62.195312 474.484375 C 61.425781 474.640625 60.644531 474.714844 59.859375 474.714844 C 59.074219 474.714844 58.296875 474.640625 57.523438 474.484375 C 56.753906 474.332031 56.003906 474.105469 55.277344 473.804688 C 54.550781 473.503906 53.863281 473.136719 53.207031 472.699219 C 52.554688 472.261719 51.949219 471.765625 51.394531 471.210938 C 50.839844 470.652344 50.34375 470.046875 49.90625 469.394531 C 49.46875 468.742188 49.101562 468.050781 48.800781 467.324219 C 48.5 466.597656 48.269531 465.851562 48.117188 465.078125 C 47.964844 464.308594 47.886719 463.53125 47.886719 462.742188 C 47.886719 461.957031 47.964844 461.179688 48.117188 460.410156 C 48.269531 459.636719 48.5 458.890625 48.800781 458.164062 C 49.101562 457.4375 49.46875 456.746094 49.90625 456.09375 C 50.34375 455.4375 50.839844 454.835938 51.394531 454.277344 C 51.949219 453.722656 52.554688 453.226562 53.207031 452.789062 C 53.863281 452.351562 54.550781 451.984375 55.277344 451.683594 C 56.003906 451.382812 56.753906 451.15625 57.523438 451.003906 C 58.296875 450.847656 59.074219 450.773438 59.859375 450.773438 C 60.644531 450.773438 61.425781 450.847656 62.195312 451.003906 C 62.964844 451.15625 63.714844 451.382812 64.441406 451.683594 C 65.167969 451.984375 65.855469 452.351562 66.511719 452.789062 C 67.164062 453.226562 67.769531 453.722656 68.324219 454.277344 C 68.882812 454.835938 69.378906 455.4375 69.8125 456.09375 C 70.25 456.746094 70.621094 457.4375 70.921875 458.164062 C 71.222656 458.890625 71.449219 459.636719 71.601562 460.410156 C 71.753906 461.179688 71.832031 461.957031 71.832031 462.742188 Z M 71.832031 462.742188 " fill-opacity="1" fill-rule="nonzero"/><path fill="#f2b076" d="M 622.539062 618.976562 L 622.539062 606.40625 C 622.539062 586.652344 606.378906 570.492188 586.625 570.492188 L 466.90625 570.492188 C 447.152344 570.492188 430.988281 586.652344 430.988281 606.40625 L 430.988281 618.976562 C 414.230469 621.972656 401.058594 636.335938 401.058594 654.296875 L 401.058594 678.238281 C 401.058594 684.824219 406.449219 690.210938 413.03125 690.210938 L 640.5 690.210938 C 647.082031 690.210938 652.472656 684.824219 652.472656 678.238281 L 652.472656 654.296875 C 652.472656 636.335938 639.300781 621.972656 622.539062 618.976562 Z M 598.597656 618.378906 L 454.933594 618.378906 L 454.933594 606.40625 C 454.933594 599.824219 460.320312 594.433594 466.90625 594.433594 L 586.625 594.433594 C 593.210938 594.433594 598.597656 599.824219 598.597656 606.40625 Z M 598.597656 618.378906 " fill-opacity="1" fill-rule="nonzero"/><path fill="#f2b076" d="M 250.214844 395.101562 C 271.164062 394.503906 331.621094 391.511719 344.792969 385.523438 C 362.152344 377.742188 369.335938 357.390625 362.75 337.039062 C 354.96875 314.292969 335.8125 309.503906 319.652344 305.3125 C 319.652344 305.3125 241.234375 284.960938 219.085938 280.171875 C 206.515625 277.179688 181.375 271.191406 164.015625 287.355469 L 113.136719 331.652344 C 111.339844 331.652344 109.542969 331.050781 107.746094 331.050781 L 11.972656 331.050781 C 5.386719 331.050781 0 336.441406 0 343.023438 C 0 349.609375 5.386719 354.996094 11.972656 354.996094 L 95.777344 354.996094 L 95.777344 498.660156 L 53.875 498.660156 C 47.289062 498.660156 41.902344 504.046875 41.902344 510.632812 C 41.902344 517.214844 47.289062 522.605469 53.875 522.605469 L 107.746094 522.605469 C 111.9375 522.605469 116.128906 520.210938 117.921875 516.617188 C 117.921875 516.617188 167.605469 516.617188 167.605469 516.617188 C 174.191406 516.617188 179.578125 511.230469 179.578125 504.644531 L 179.578125 465.136719 C 217.289062 446.582031 241.234375 410.066406 250.214844 395.101562 Z M 163.417969 446.582031 C 158.628906 448.378906 155.636719 452.566406 155.636719 457.957031 L 155.636719 492.671875 L 119.71875 492.671875 L 119.71875 357.988281 L 180.777344 304.714844 C 190.355469 297.53125 204.71875 301.722656 213.699219 303.515625 C 236.445312 308.304688 314.261719 328.660156 314.261719 328.660156 C 328.628906 332.25 337.011719 334.644531 340.601562 344.222656 C 342.996094 351.40625 341.800781 360.382812 335.214844 363.375 C 325.636719 367.566406 255.003906 371.160156 243.628906 371.160156 C 238.839844 371.160156 234.648438 373.554688 232.855469 377.742188 C 231.65625 378.941406 206.515625 428.625 163.417969 446.582031 Z M 163.417969 446.582031 " fill-opacity="1" fill-rule="nonzero"/><path fill="#f2b076" d="M 601.589844 508.238281 C 599.792969 513.027344 597.398438 517.816406 594.40625 522.003906 L 588.421875 529.785156 C 583.632812 536.96875 576.449219 542.355469 569.265625 546.546875 L 586.625 546.546875 C 600.394531 546.546875 612.363281 551.335938 622.539062 558.519531 L 622.539062 527.390625 L 609.371094 515.421875 C 606.976562 513.027344 603.984375 510.632812 601.589844 508.238281 Z M 601.589844 508.238281 " fill-opacity="1" fill-rule="nonzero"/><path fill="#f2b076" d="M 407.046875 602.21875 C 408.839844 571.089844 435.179688 546.546875 466.90625 546.546875 L 520.78125 546.546875 C 517.785156 545.351562 515.390625 543.554688 512.996094 541.757812 C 512.996094 541.757812 512.398438 541.160156 511.203125 540.5625 C 510.601562 540.5625 510.003906 540.5625 508.808594 540.5625 L 329.226562 540.5625 C 322.644531 540.5625 317.257812 535.175781 317.257812 528.589844 C 317.257812 522.003906 322.644531 516.617188 329.226562 516.617188 L 480.074219 516.617188 C 463.3125 503.449219 445.953125 490.878906 445.953125 490.878906 C 442.363281 487.886719 438.773438 484.890625 435.777344 480.703125 L 329.226562 480.703125 C 322.644531 480.703125 317.257812 475.316406 317.257812 468.730469 C 317.257812 462.144531 322.644531 456.757812 329.226562 456.757812 L 426.199219 456.757812 C 423.808594 444.785156 426.199219 432.214844 432.1875 420.84375 L 329.226562 420.84375 C 324.441406 420.84375 320.847656 418.449219 319.050781 414.855469 C 305.882812 416.054688 288.523438 417.847656 263.980469 419.046875 C 256.199219 431.019531 244.226562 446.582031 228.066406 460.949219 C 226.867188 462.144531 225.671875 462.742188 224.472656 463.941406 L 223.277344 465.136719 C 220.882812 466.933594 218.488281 469.328125 216.09375 471.125 L 216.09375 488.484375 C 211.902344 487.886719 207.714844 487.285156 204.121094 486.089844 L 204.121094 504.644531 C 204.121094 506.441406 204.121094 508.238281 203.523438 510.03125 C 207.113281 510.632812 210.707031 511.230469 214.296875 511.828125 C 214.894531 511.828125 215.496094 511.828125 216.09375 511.828125 L 216.09375 654.296875 C 216.09375 674.046875 232.253906 690.210938 252.007812 690.210938 L 379.511719 690.210938 C 378.910156 688.414062 378.3125 686.621094 377.714844 684.824219 C 377.714844 684.824219 377.714844 684.226562 377.714844 684.226562 C 377.117188 682.429688 377.117188 680.632812 377.117188 678.238281 L 377.117188 654.296875 C 377.117188 632.148438 389.089844 612.992188 407.046875 602.21875 Z M 407.046875 602.21875 " fill-opacity="1" fill-rule="nonzero"/><path fill="#f2b076" d="M 320.25 280.769531 C 322.644531 278.375 325.636719 277.179688 329.226562 277.179688 L 508.808594 277.179688 C 515.390625 277.179688 520.78125 282.566406 520.78125 289.152344 C 520.78125 295.734375 515.390625 301.121094 508.808594 301.121094 L 366.941406 301.121094 C 374.722656 307.707031 381.304688 316.6875 385.496094 329.855469 C 386.09375 332.25 387.292969 334.644531 387.292969 337.039062 L 508.808594 337.039062 C 510.601562 337.039062 512.996094 337.636719 514.792969 338.835938 L 522.574219 328.058594 C 518.984375 313.09375 521.976562 296.933594 531.554688 283.761719 L 537.539062 275.980469 C 547.714844 262.214844 563.878906 253.832031 581.238281 253.832031 C 593.210938 253.832031 603.984375 257.425781 613.5625 264.609375 C 613.5625 264.609375 615.359375 265.804688 620.148438 269.996094 C 620.746094 270.59375 621.941406 271.191406 623.140625 272.390625 L 623.140625 198.761719 C 623.140625 195.769531 621.941406 192.777344 619.546875 190.382812 L 492.046875 59.289062 C 489.652344 56.894531 487.257812 55.699219 483.667969 55.699219 L 251.410156 55.699219 C 231.65625 55.699219 215.496094 71.859375 215.496094 91.613281 L 215.496094 255.03125 C 218.488281 255.628906 221.480469 256.226562 223.875 256.828125 C 244.226562 261.015625 302.292969 276.582031 320.25 280.769531 Z M 490.847656 96.402344 L 581.835938 187.390625 L 502.820312 187.390625 C 496.238281 187.390625 490.847656 182 490.847656 175.417969 Z M 490.847656 96.402344 " fill-opacity="1" fill-rule="nonzero"/><path fill="#f2b076" d="M 450.742188 396.898438 C 457.925781 390.914062 466.90625 386.722656 476.484375 385.523438 C 477.679688 385.523438 478.878906 384.925781 480.074219 384.925781 L 497.433594 360.984375 L 388.488281 360.984375 C 386.695312 374.75 380.109375 387.320312 369.933594 396.898438 Z M 450.742188 396.898438 " fill-opacity="1" fill-rule="nonzero"/><path fill="#f2b076" d="M 599.792969 441.792969 L 609.371094 428.625 L 747.648438 516.617188 C 753.035156 520.210938 760.816406 518.414062 764.410156 513.027344 C 768 507.640625 766.203125 499.855469 760.816406 496.265625 L 623.738281 408.871094 L 633.316406 395.699219 C 635.710938 396.300781 638.105469 396.898438 641.097656 396.898438 C 650.675781 396.898438 659.652344 392.109375 665.042969 384.328125 L 671.027344 376.546875 C 680.605469 363.375 677.613281 344.222656 665.042969 334.046875 C 665.042969 334.046875 598.597656 283.164062 598.597656 283.164062 C 585.429688 272.988281 566.273438 275.980469 556.695312 289.75 L 550.710938 297.53125 C 543.527344 307.707031 543.527344 321.476562 549.511719 331.652344 L 492.644531 410.066406 C 489.054688 408.871094 484.863281 408.871094 480.671875 409.46875 C 472.890625 410.664062 465.707031 414.855469 460.917969 421.441406 L 454.933594 429.222656 C 445.355469 442.390625 448.347656 461.546875 460.917969 471.722656 C 460.917969 471.722656 527.363281 522.605469 527.363281 522.605469 C 540.53125 532.78125 559.6875 529.785156 569.265625 516.019531 L 575.25 508.238281 C 582.433594 498.0625 582.433594 484.292969 576.449219 474.117188 L 586.027344 460.949219 C 586.027344 460.949219 746.449219 608.800781 746.449219 609.398438 C 751.238281 613.589844 759.019531 613.589844 763.210938 608.800781 C 768 604.011719 767.402344 596.230469 762.613281 592.039062 Z M 555.5 494.46875 C 555.5 494.46875 549.511719 502.25 549.511719 502.25 C 547.714844 504.644531 544.125 505.246094 541.730469 503.449219 L 475.285156 452.566406 C 472.292969 450.171875 471.695312 445.984375 474.089844 442.992188 C 474.089844 442.992188 480.074219 435.207031 480.074219 435.207031 C 481.871094 432.8125 485.460938 432.214844 487.855469 434.011719 L 554.300781 484.890625 C 556.695312 486.6875 557.292969 491.476562 555.5 494.46875 Z M 571.0625 320.875 C 568.070312 318.480469 567.46875 314.292969 569.863281 311.300781 L 575.851562 303.515625 C 577.644531 301.121094 581.238281 300.523438 583.632812 302.320312 L 650.078125 353.199219 C 653.070312 355.59375 653.667969 359.785156 651.273438 362.777344 C 651.273438 362.777344 645.289062 370.558594 645.289062 370.558594 C 643.492188 372.953125 639.898438 373.554688 637.503906 371.757812 Z M 571.0625 320.875 " fill-opacity="1" fill-rule="nonzero"/></svg>