<svg xmlns="http://www.w3.org/2000/svg" xmlns:xlink="http://www.w3.org/1999/xlink" width="1024" zoomAndPan="magnify" viewBox="0 0 768 767.999994" height="1024" preserveAspectRatio="xMidYMid meet" version="1.0"><path fill="#f2b076" d="M 71.832031 462.742188 C 71.832031 463.53125 71.753906 464.308594 71.601562 465.078125 C 71.449219 465.851562 71.222656 466.597656 70.921875 467.324219 C 70.621094 468.050781 70.25 468.742188 69.8125 469.394531 C 69.378906 470.046875 68.882812 470.652344 68.324219 471.210938 C 67.769531 471.765625 67.164062 472.261719 66.511719 472.699219 C 65.855469 473.136719 65.167969 473.503906 64.441406 473.804688 C 63.714844 474.105469 62.964844 474.332031 62.195312 474.484375 C 61.425781 474.640625 60.644531 474.714844 59.859375 474.714844 C 59.074219 474.714844 58.296875 474.640625 57.523438 474.484375 C 56.753906 474.332031 56.003906 474.105469 55.277344 473.804688 C 54.550781 473.503906 53.863281 473.136719 53.207031 472.699219 C 52.554688 472.261719 51.949219 471.765625 51.394531 471.210938 C 50.839844 470.652344 50.34375 470.046875 49.90625 469.394531 C 49.46875 468.742188 49.101562 468.050781 48.800781 467.324219 C 48.5 466.597656 48.269531 465.851562 48.117188 465.078125 C 47.964844 464.308594 47.886719 463.53125 47.886719 462.742188 C 47.886719 461.957031 47.964844 461.179688 48.117188 460.410156 C 48.269531 459.636719 48.5 458.890625 48.800781 458.164062 C 49.101562 457.4375 49.46875 456.746094 49.90625 456.09375 C 50.34375 455.4375 50.839844 454.835938 51.394531 454.277344 C 51.949219 453.722656 52.554688 453.226562 53.207031 452.789062 C 53.863281 452.351562 54.550781 451.984375 55.277344 451.683594 C 56.003906 451.382812 56.753906 451.15625 57.523438 451.003906 C 58.296875 450.847656 59.074219 450.773438 59.859375 450.773438 C 60.644531 450.773438 61.425781 450.847656 62.195312 451.003906 C 62.964844 451.15625 63.714844 451.382812 64.441406 451.683594 C 65.167969 451.984375 65.855469 452.351562 66.511719 452.789062 C 67.164062 453.226562 67.769531 453.722656 68.324219 454.277344 C 68.882812 454.835938 69.378906 455.4375 69.8125 456.09375 C 70.25 456.746094 70.621094 457.4375 70.921875 458.164062 C 71.222656 458.890625 71.449219 459.636719 71.601562 460.410156 C 71.753906 461.179688 71.832031 461.957031 71.832031 462.742188 Z M 71.832031 462.742188 " fill-opacity="1" fill-rule="nonzero"/><path fill="#f2b076" d="M 622.539062 618.976562 L 622.539062 606.40625 C 622.539062 586.652344 606.378906 570.492188 586.625 570.492188 L 466.90625 570.492188 C 447.152344 570.492188 430.988281 586.652344 430.988281 606.40625 L 430.988281 618.976562 C 414.230469 621.972656 401.058594 636.335938 401.058594 654.296875 L 401.058594 678.238281 C 401.058594 684.824219 406.449219 690.210938 413.03125 690.210938 L 640.5 690.210938 C 647.082031 690.210938 652.472656 684.824219 652.472656 678.238281 L 652.472656 654.296875 C 652.472656 636.335938 639.300781 621.972656 622.539062 618.976562 Z M 454.933594 606.40625 C 454.933594 599.824219 460.320312 594.433594 466.90625 594.433594 L 586.625 594.433594 C 593.210938 594.433594 598.597656 599.824219 598.597656 606.40625 L 598.597656 618.378906 L 454.933594 618.378906 Z M 628.527344 666.265625 L 425.003906 666.265625 L 425.003906 654.296875 C 425.003906 647.710938 430.390625 642.324219 436.976562 642.324219 L 616.554688 642.324219 C 623.140625 642.324219 628.527344 647.710938 628.527344 654.296875 Z M 628.527344 666.265625 " fill-opacity="1" fill-rule="nonzero"/><path fill="#f2b076" d="M 520.78125 289.152344 C 520.78125 282.566406 515.390625 277.179688 508.808594 277.179688 L 329.226562 277.179688 C 325.636719 277.179688 322.644531 278.976562 320.25 281.367188 C 321.445312 281.367188 350.179688 287.953125 366.339844 301.121094 L 508.808594 301.121094 C 515.390625 301.121094 520.78125 295.734375 520.78125 289.152344 Z M 520.78125 289.152344 " fill-opacity="1" fill-rule="nonzero"/><path fill="#f2b076" d="M 250.214844 395.101562 C 271.164062 394.503906 331.621094 391.511719 344.792969 385.523438 C 362.152344 377.742188 369.335938 357.390625 362.75 337.039062 C 355.566406 314.292969 335.8125 309.503906 319.652344 305.3125 C 319.652344 305.3125 241.234375 284.960938 218.488281 280.171875 C 205.917969 277.179688 180.777344 271.191406 163.417969 287.355469 L 112.535156 331.652344 C 111.339844 331.652344 109.542969 331.050781 107.746094 331.050781 L 11.972656 331.050781 C 5.386719 331.050781 0 336.441406 0 343.023438 C 0 349.609375 5.386719 354.996094 11.972656 354.996094 L 95.777344 354.996094 L 95.777344 498.660156 L 53.875 498.660156 C 47.289062 498.660156 41.902344 504.046875 41.902344 510.632812 C 41.902344 517.214844 47.289062 522.605469 53.875 522.605469 L 107.746094 522.605469 C 111.9375 522.605469 116.128906 520.210938 117.921875 516.617188 C 117.921875 516.617188 167.605469 516.617188 167.605469 516.617188 C 174.191406 516.617188 179.578125 511.230469 179.578125 504.644531 L 179.578125 465.136719 C 217.289062 446.582031 241.234375 410.066406 250.214844 395.101562 Z M 162.820312 446.582031 C 158.03125 448.378906 155.636719 452.566406 155.636719 457.957031 L 155.636719 492.671875 L 119.71875 492.671875 L 119.71875 357.988281 C 119.71875 357.988281 180.777344 304.714844 180.777344 304.714844 C 190.355469 297.53125 204.71875 301.722656 213.699219 304.117188 C 235.847656 308.90625 314.261719 329.257812 314.261719 329.257812 C 328.628906 332.847656 337.011719 335.242188 340.601562 344.820312 C 342.996094 352.003906 341.800781 360.984375 335.214844 363.976562 C 325.636719 368.164062 255.003906 371.757812 243.628906 371.757812 C 238.839844 371.757812 234.648438 374.152344 232.855469 378.339844 C 231.65625 378.941406 206.515625 428.625 162.820312 446.582031 Z M 162.820312 446.582031 " fill-opacity="1" fill-rule="nonzero"/><path fill="#f2b076" d="M 377.117188 666.265625 L 251.410156 666.265625 C 244.828125 666.265625 239.4375 660.878906 239.4375 654.296875 L 239.4375 449.574219 C 232.253906 456.757812 224.472656 464.539062 215.496094 471.125 L 215.496094 488.484375 C 211.304688 487.886719 207.113281 487.285156 203.523438 486.089844 L 203.523438 504.644531 C 203.523438 506.441406 203.523438 508.238281 202.925781 510.03125 C 206.515625 510.632812 210.109375 511.230469 213.699219 511.828125 C 214.296875 511.828125 214.894531 511.828125 215.496094 511.828125 L 215.496094 654.296875 C 215.496094 674.046875 231.65625 690.210938 251.410156 690.210938 L 378.910156 690.210938 C 377.714844 686.621094 377.117188 682.429688 377.117188 678.238281 Z M 377.117188 666.265625 " fill-opacity="1" fill-rule="nonzero"/><path fill="#f2b076" d="M 354.96875 407.074219 C 347.785156 410.066406 334.617188 412.460938 319.050781 414.257812 C 320.847656 417.847656 325.039062 420.242188 329.226562 420.242188 L 431.589844 420.242188 C 432.785156 418.449219 441.765625 404.082031 450.742188 396.300781 L 369.933594 396.300781 C 365.742188 401.089844 360.355469 404.679688 354.96875 407.074219 Z M 354.96875 407.074219 " fill-opacity="1" fill-rule="nonzero"/><path fill="#f2b076" d="M 508.808594 337.039062 L 387.292969 337.039062 C 389.089844 345.417969 389.089844 353.199219 388.488281 360.984375 L 498.03125 360.984375 L 514.195312 338.835938 C 512.996094 337.636719 511.203125 337.039062 508.808594 337.039062 Z M 508.808594 337.039062 " fill-opacity="1" fill-rule="nonzero"/><path fill="#f2b076" d="M 329.226562 456.757812 C 322.644531 456.757812 317.257812 462.144531 317.257812 468.730469 C 317.257812 475.316406 322.644531 480.703125 329.226562 480.703125 L 436.378906 480.703125 C 430.988281 473.519531 427.398438 465.136719 426.199219 456.757812 Z M 329.226562 456.757812 " fill-opacity="1" fill-rule="nonzero"/><path fill="#f2b076" d="M 329.226562 516.617188 C 322.644531 516.617188 317.257812 522.003906 317.257812 528.589844 C 317.257812 535.175781 322.644531 540.5625 329.226562 540.5625 L 508.808594 540.5625 C 509.40625 540.5625 510.601562 540.5625 511.203125 540.5625 L 480.074219 516.617188 Z M 329.226562 516.617188 " fill-opacity="1" fill-rule="nonzero"/><path fill="#f2b076" d="M 239.4375 260.417969 L 239.4375 91.613281 C 239.4375 85.027344 244.828125 79.640625 251.410156 79.640625 L 466.90625 79.640625 L 466.90625 175.417969 C 466.90625 195.171875 483.066406 211.332031 502.820312 211.332031 L 598.597656 211.332031 L 598.597656 256.226562 C 603.386719 258.023438 608.175781 260.417969 612.964844 264.007812 L 622.539062 271.792969 L 622.539062 198.761719 C 622.539062 195.769531 621.34375 192.777344 618.949219 190.382812 L 492.046875 59.289062 C 489.652344 56.894531 487.257812 55.699219 483.667969 55.699219 L 251.410156 55.699219 C 231.65625 55.699219 215.496094 71.859375 215.496094 91.613281 L 215.496094 255.03125 C 218.488281 255.628906 221.480469 256.226562 223.875 256.828125 C 229.261719 258.023438 234.050781 259.222656 239.4375 260.417969 Z M 502.820312 187.390625 C 496.238281 187.390625 490.847656 182 490.847656 175.417969 L 490.847656 96.402344 L 581.835938 187.390625 Z M 502.820312 187.390625 " fill-opacity="1" fill-rule="nonzero"/><path fill="#f2b076" d="M 622.539062 527.390625 L 601.589844 507.640625 C 600.992188 510.03125 599.792969 512.425781 598.597656 514.222656 L 598.597656 547.144531 C 607.574219 548.941406 615.359375 552.535156 622.539062 557.921875 Z M 622.539062 527.390625 " fill-opacity="1" fill-rule="nonzero"/><path fill="#f2b076" d="M 599.792969 441.792969 L 609.371094 428.625 L 747.648438 516.617188 C 753.035156 520.210938 760.816406 518.414062 764.410156 513.027344 C 768 507.640625 766.203125 499.855469 760.816406 496.265625 L 623.738281 408.871094 L 633.316406 395.699219 C 635.710938 396.300781 638.105469 396.898438 640.5 396.898438 C 650.078125 396.898438 659.054688 392.109375 664.441406 384.328125 L 670.429688 376.546875 C 680.007812 363.375 677.011719 344.222656 664.441406 334.046875 C 664.441406 334.046875 598 283.164062 598 283.164062 C 584.828125 272.988281 565.675781 275.980469 556.097656 289.75 L 550.109375 297.53125 C 542.925781 307.707031 542.925781 321.476562 548.914062 331.652344 L 491.449219 410.066406 C 487.855469 408.871094 483.667969 408.871094 479.476562 409.46875 C 471.695312 410.664062 464.511719 414.855469 459.722656 421.441406 L 453.738281 429.222656 C 444.160156 442.390625 447.152344 461.546875 459.722656 471.722656 C 459.722656 471.722656 526.167969 522.605469 526.167969 522.605469 C 539.335938 532.78125 558.492188 529.785156 568.070312 516.019531 L 574.054688 508.238281 C 581.238281 498.0625 581.238281 484.292969 575.25 474.117188 L 584.828125 460.949219 C 584.828125 460.949219 745.253906 608.800781 745.253906 609.398438 C 750.042969 613.589844 757.824219 613.589844 762.015625 608.800781 C 766.804688 604.011719 766.203125 596.230469 761.414062 592.039062 Z M 558.492188 457.957031 L 512.398438 422.636719 L 566.871094 347.8125 L 612.964844 383.128906 Z M 569.863281 311.898438 C 569.863281 311.898438 575.851562 304.117188 575.851562 304.117188 C 577.644531 301.722656 581.238281 301.121094 583.632812 302.917969 L 650.078125 353.800781 C 653.070312 356.195312 653.667969 360.382812 651.273438 363.375 C 651.273438 363.375 645.289062 371.160156 645.289062 371.160156 C 643.492188 373.554688 639.898438 374.152344 637.503906 372.355469 L 571.0625 321.476562 C 568.667969 319.082031 568.070312 314.292969 569.863281 311.898438 Z M 555.5 493.871094 C 555.5 493.871094 549.511719 501.652344 549.511719 501.652344 C 547.714844 504.046875 544.125 504.644531 541.730469 502.851562 L 475.285156 451.96875 C 472.292969 449.574219 471.695312 445.382812 474.089844 442.390625 C 474.089844 442.390625 480.074219 434.609375 480.074219 434.609375 C 481.871094 432.214844 485.460938 431.019531 487.855469 433.414062 L 554.300781 484.292969 C 556.695312 486.6875 557.292969 491.476562 555.5 493.871094 Z M 555.5 493.871094 " fill-opacity="1" fill-rule="nonzero"/><path fill="#f2b076" d="M 71.832031 462.742188 C 71.832031 463.53125 71.753906 464.308594 71.601562 465.078125 C 71.449219 465.851562 71.222656 466.597656 70.921875 467.324219 C 70.621094 468.050781 70.25 468.742188 69.8125 469.394531 C 69.378906 470.046875 68.882812 470.652344 68.324219 471.210938 C 67.769531 471.765625 67.164062 472.261719 66.511719 472.699219 C 65.855469 473.136719 65.167969 473.503906 64.441406 473.804688 C 63.714844 474.105469 62.964844 474.332031 62.195312 474.484375 C 61.425781 474.640625 60.644531 474.714844 59.859375 474.714844 C 59.074219 474.714844 58.296875 474.640625 57.523438 474.484375 C 56.753906 474.332031 56.003906 474.105469 55.277344 473.804688 C 54.550781 473.503906 53.863281 473.136719 53.207031 472.699219 C 52.554688 472.261719 51.949219 471.765625 51.394531 471.210938 C 50.839844 470.652344 50.34375 470.046875 49.90625 469.394531 C 49.46875 468.742188 49.101562 468.050781 48.800781 467.324219 C 48.5 466.597656 48.269531 465.851562 48.117188 465.078125 C 47.964844 464.308594 47.886719 463.53125 47.886719 462.742188 C 47.886719 461.957031 47.964844 461.179688 48.117188 460.410156 C 48.269531 459.636719 48.5 458.890625 48.800781 458.164062 C 49.101562 457.4375 49.46875 456.746094 49.90625 456.09375 C 50.34375 455.4375 50.839844 454.835938 51.394531 454.277344 C 51.949219 453.722656 52.554688 453.226562 53.207031 452.789062 C 53.863281 452.351562 54.550781 451.984375 55.277344 451.683594 C 56.003906 451.382812 56.753906 451.15625 57.523438 451.003906 C 58.296875 450.847656 59.074219 450.773438 59.859375 450.773438 C 60.644531 450.773438 61.425781 450.847656 62.195312 451.003906 C 62.964844 451.15625 63.714844 451.382812 64.441406 451.683594 C 65.167969 451.984375 65.855469 452.351562 66.511719 452.789062 C 67.164062 453.226562 67.769531 453.722656 68.324219 454.277344 C 68.882812 454.835938 69.378906 455.4375 69.8125 456.09375 C 70.25 456.746094 70.621094 457.4375 70.921875 458.164062 C 71.222656 458.890625 71.449219 459.636719 71.601562 460.410156 C 71.753906 461.179688 71.832031 461.957031 71.832031 462.742188 Z M 71.832031 462.742188 " fill-opacity="1" fill-rule="nonzero"/><path fill="#f2b076" d="M 622.539062 618.976562 L 622.539062 606.40625 C 622.539062 586.652344 606.378906 570.492188 586.625 570.492188 L 466.90625 570.492188 C 447.152344 570.492188 430.988281 586.652344 430.988281 606.40625 L 430.988281 618.976562 C 414.230469 621.972656 401.058594 636.335938 401.058594 654.296875 L 401.058594 678.238281 C 401.058594 684.824219 406.449219 690.210938 413.03125 690.210938 L 640.5 690.210938 C 647.082031 690.210938 652.472656 684.824219 652.472656 678.238281 L 652.472656 654.296875 C 652.472656 636.335938 639.300781 621.972656 622.539062 618.976562 Z M 454.933594 606.40625 C 454.933594 599.824219 460.320312 594.433594 466.90625 594.433594 L 586.625 594.433594 C 593.210938 594.433594 598.597656 599.824219 598.597656 606.40625 L 598.597656 618.378906 L 454.933594 618.378906 Z M 628.527344 666.265625 L 425.003906 666.265625 L 425.003906 654.296875 C 425.003906 647.710938 430.390625 642.324219 436.976562 642.324219 L 616.554688 642.324219 C 623.140625 642.324219 628.527344 647.710938 628.527344 654.296875 Z M 628.527344 666.265625 " fill-opacity="1" fill-rule="nonzero"/><path fill="#f2b076" d="M 520.78125 289.152344 C 520.78125 282.566406 515.390625 277.179688 508.808594 277.179688 L 329.226562 277.179688 C 325.636719 277.179688 322.644531 278.976562 320.25 281.367188 C 321.445312 281.367188 350.179688 287.953125 366.339844 301.121094 L 508.808594 301.121094 C 515.390625 301.121094 520.78125 295.734375 520.78125 289.152344 Z M 520.78125 289.152344 " fill-opacity="1" fill-rule="nonzero"/><path fill="#f2b076" d="M 250.214844 395.101562 C 271.164062 394.503906 331.621094 391.511719 344.792969 385.523438 C 362.152344 377.742188 369.335938 357.390625 362.75 337.039062 C 355.566406 314.292969 335.8125 309.503906 319.652344 305.3125 C 319.652344 305.3125 241.234375 284.960938 218.488281 280.171875 C 205.917969 277.179688 180.777344 271.191406 163.417969 287.355469 L 112.535156 331.652344 C 111.339844 331.652344 109.542969 331.050781 107.746094 331.050781 L 11.972656 331.050781 C 5.386719 331.050781 0 336.441406 0 343.023438 C 0 349.609375 5.386719 354.996094 11.972656 354.996094 L 95.777344 354.996094 L 95.777344 498.660156 L 53.875 498.660156 C 47.289062 498.660156 41.902344 504.046875 41.902344 510.632812 C 41.902344 517.214844 47.289062 522.605469 53.875 522.605469 L 107.746094 522.605469 C 111.9375 522.605469 116.128906 520.210938 117.921875 516.617188 C 117.921875 516.617188 167.605469 516.617188 167.605469 516.617188 C 174.191406 516.617188 179.578125 511.230469 179.578125 504.644531 L 179.578125 465.136719 C 217.289062 446.582031 241.234375 410.066406 250.214844 395.101562 Z M 162.820312 446.582031 C 158.03125 448.378906 155.636719 452.566406 155.636719 457.957031 L 155.636719 492.671875 L 119.71875 492.671875 L 119.71875 357.988281 C 119.71875 357.988281 180.777344 304.714844 180.777344 304.714844 C 190.355469 297.53125 204.71875 301.722656 213.699219 304.117188 C 235.847656 308.90625 314.261719 329.257812 314.261719 329.257812 C 328.628906 332.847656 337.011719 335.242188 340.601562 344.820312 C 342.996094 352.003906 341.800781 360.984375 335.214844 363.976562 C 325.636719 368.164062 255.003906 371.757812 243.628906 371.757812 C 238.839844 371.757812 234.648438 374.152344 232.855469 378.339844 C 231.65625 378.941406 206.515625 428.625 162.820312 446.582031 Z M 162.820312 446.582031 " fill-opacity="1" fill-rule="nonzero"/><path fill="#f2b076" d="M 377.117188 666.265625 L 251.410156 666.265625 C 244.828125 666.265625 239.4375 660.878906 239.4375 654.296875 L 239.4375 449.574219 C 232.253906 456.757812 224.472656 464.539062 215.496094 471.125 L 215.496094 488.484375 C 211.304688 487.886719 207.113281 487.285156 203.523438 486.089844 L 203.523438 504.644531 C 203.523438 506.441406 203.523438 508.238281 202.925781 510.03125 C 206.515625 510.632812 210.109375 511.230469 213.699219 511.828125 C 214.296875 511.828125 214.894531 511.828125 215.496094 511.828125 L 215.496094 654.296875 C 215.496094 674.046875 231.65625 690.210938 251.410156 690.210938 L 378.910156 690.210938 C 377.714844 686.621094 377.117188 682.429688 377.117188 678.238281 Z M 377.117188 666.265625 " fill-opacity="1" fill-rule="nonzero"/><path fill="#f2b076" d="M 354.96875 407.074219 C 347.785156 410.066406 334.617188 412.460938 319.050781 414.257812 C 320.847656 417.847656 325.039062 420.242188 329.226562 420.242188 L 431.589844 420.242188 C 432.785156 418.449219 441.765625 404.082031 450.742188 396.300781 L 369.933594 396.300781 C 365.742188 401.089844 360.355469 404.679688 354.96875 407.074219 Z M 354.96875 407.074219 " fill-opacity="1" fill-rule="nonzero"/><path fill="#f2b076" d="M 508.808594 337.039062 L 387.292969 337.039062 C 389.089844 345.417969 389.089844 353.199219 388.488281 360.984375 L 498.03125 360.984375 L 514.195312 338.835938 C 512.996094 337.636719 511.203125 337.039062 508.808594 337.039062 Z M 508.808594 337.039062 " fill-opacity="1" fill-rule="nonzero"/><path fill="#f2b076" d="M 329.226562 456.757812 C 322.644531 456.757812 317.257812 462.144531 317.257812 468.730469 C 317.257812 475.316406 322.644531 480.703125 329.226562 480.703125 L 436.378906 480.703125 C 430.988281 473.519531 427.398438 465.136719 426.199219 456.757812 Z M 329.226562 456.757812 " fill-opacity="1" fill-rule="nonzero"/><path fill="#f2b076" d="M 329.226562 516.617188 C 322.644531 516.617188 317.257812 522.003906 317.257812 528.589844 C 317.257812 535.175781 322.644531 540.5625 329.226562 540.5625 L 508.808594 540.5625 C 509.40625 540.5625 510.601562 540.5625 511.203125 540.5625 L 480.074219 516.617188 Z M 329.226562 516.617188 " fill-opacity="1" fill-rule="nonzero"/><path fill="#f2b076" d="M 239.4375 260.417969 L 239.4375 91.613281 C 239.4375 85.027344 244.828125 79.640625 251.410156 79.640625 L 466.90625 79.640625 L 466.90625 175.417969 C 466.90625 195.171875 483.066406 211.332031 502.820312 211.332031 L 598.597656 211.332031 L 598.597656 256.226562 C 603.386719 258.023438 608.175781 260.417969 612.964844 264.007812 L 622.539062 271.792969 L 622.539062 198.761719 C 622.539062 195.769531 621.34375 192.777344 618.949219 190.382812 L 492.046875 59.289062 C 489.652344 56.894531 487.257812 55.699219 483.667969 55.699219 L 251.410156 55.699219 C 231.65625 55.699219 215.496094 71.859375 215.496094 91.613281 L 215.496094 255.03125 C 218.488281 255.628906 221.480469 256.226562 223.875 256.828125 C 229.261719 258.023438 234.050781 259.222656 239.4375 260.417969 Z M 502.820312 187.390625 C 496.238281 187.390625 490.847656 182 490.847656 175.417969 L 490.847656 96.402344 L 581.835938 187.390625 Z M 502.820312 187.390625 " fill-opacity="1" fill-rule="nonzero"/><path fill="#f2b076" d="M 622.539062 527.390625 L 601.589844 507.640625 C 600.992188 510.03125 599.792969 512.425781 598.597656 514.222656 L 598.597656 547.144531 C 607.574219 548.941406 615.359375 552.535156 622.539062 557.921875 Z M 622.539062 527.390625 " fill-opacity="1" fill-rule="nonzero"/><path fill="#f2b076" d="M 599.792969 441.792969 L 609.371094 428.625 L 747.648438 516.617188 C 753.035156 520.210938 760.816406 518.414062 764.410156 513.027344 C 768 507.640625 766.203125 499.855469 760.816406 496.265625 L 623.738281 408.871094 L 633.316406 395.699219 C 635.710938 396.300781 638.105469 396.898438 640.5 396.898438 C 650.078125 396.898438 659.054688 392.109375 664.441406 384.328125 L 670.429688 376.546875 C 680.007812 363.375 677.011719 344.222656 664.441406 334.046875 C 664.441406 334.046875 598 283.164062 598 283.164062 C 584.828125 272.988281 565.675781 275.980469 556.097656 289.75 L 550.109375 297.53125 C 542.925781 307.707031 542.925781 321.476562 548.914062 331.652344 L 491.449219 410.066406 C 487.855469 408.871094 483.667969 408.871094 479.476562 409.46875 C 471.695312 410.664062 464.511719 414.855469 459.722656 421.441406 L 453.738281 429.222656 C 444.160156 442.390625 447.152344 461.546875 459.722656 471.722656 C 459.722656 471.722656 526.167969 522.605469 526.167969 522.605469 C 539.335938 532.78125 558.492188 529.785156 568.070312 516.019531 L 574.054688 508.238281 C 581.238281 498.0625 581.238281 484.292969 575.25 474.117188 L 584.828125 460.949219 C 584.828125 460.949219 745.253906 608.800781 745.253906 609.398438 C 750.042969 613.589844 757.824219 613.589844 762.015625 608.800781 C 766.804688 604.011719 766.203125 596.230469 761.414062 592.039062 Z M 558.492188 457.957031 L 512.398438 422.636719 L 566.871094 347.8125 L 612.964844 383.128906 Z M 569.863281 311.898438 C 569.863281 311.898438 575.851562 304.117188 575.851562 304.117188 C 577.644531 301.722656 581.238281 301.121094 583.632812 302.917969 L 650.078125 353.800781 C 653.070312 356.195312 653.667969 360.382812 651.273438 363.375 C 651.273438 363.375 645.289062 371.160156 645.289062 371.160156 C 643.492188 373.554688 639.898438 374.152344 637.503906 372.355469 L 571.0625 321.476562 C 568.667969 319.082031 568.070312 314.292969 569.863281 311.898438 Z M 555.5 493.871094 C 555.5 493.871094 549.511719 501.652344 549.511719 501.652344 C 547.714844 504.046875 544.125 504.644531 541.730469 502.851562 L 475.285156 451.96875 C 472.292969 449.574219 471.695312 445.382812 474.089844 442.390625 C 474.089844 442.390625 480.074219 434.609375 480.074219 434.609375 C 481.871094 432.214844 485.460938 431.019531 487.855469 433.414062 L 554.300781 484.292969 C 556.695312 486.6875 557.292969 491.476562 555.5 493.871094 Z M 555.5 493.871094 " fill-opacity="1" fill-rule="nonzero"/></svg>