<svg xmlns="http://www.w3.org/2000/svg" xmlns:xlink="http://www.w3.org/1999/xlink" width="1024" zoomAndPan="magnify" viewBox="0 0 768 767.999994" height="1024" preserveAspectRatio="xMidYMid meet" version="1.0"><defs><clipPath id="1d6fa0a662"><path d="M 13.441406 0 L 749 0 L 749 768 L 13.441406 768 Z M 13.441406 0 " clip-rule="nonzero"/></clipPath></defs><g clip-path="url(#1d6fa0a662)"><path fill="#f2b076" d="M 730.863281 276.667969 C 707.375 253.183594 669.160156 253.183594 645.675781 276.667969 L 616.003906 306.34375 L 616.003906 15.058594 C 616.003906 6.742188 609.257812 0 600.945312 0 L 88.945312 0 C 80.628906 0 73.882812 6.742188 73.882812 15.058594 L 73.882812 60.234375 L 28.707031 60.234375 C 20.394531 60.234375 13.648438 66.980469 13.648438 75.292969 L 13.648438 752.941406 C 13.648438 761.257812 20.394531 768 28.707031 768 L 510.589844 768 C 518.90625 768 525.648438 761.257812 525.648438 752.941406 L 525.648438 707.765625 L 600.945312 707.765625 C 609.257812 707.765625 616.003906 701.019531 616.003906 692.707031 L 616.003906 476.714844 L 730.863281 361.855469 C 754.347656 338.367188 754.347656 300.15625 730.863281 276.667969 Z M 645.675781 404.449219 L 603.082031 361.855469 C 626.304688 338.632812 621.429688 343.511719 624.378906 340.558594 L 666.972656 383.152344 Z M 528.546875 521.578125 L 485.953125 478.984375 L 581.785156 383.152344 L 624.378906 425.746094 C 612.992188 437.128906 539.886719 510.234375 528.546875 521.578125 Z M 464.65625 500.28125 L 507.25 542.875 L 467.605469 582.515625 L 410.816406 596.714844 L 425.011719 539.925781 Z M 495.53125 737.882812 L 43.765625 737.882812 L 43.765625 90.351562 L 73.882812 90.351562 L 73.882812 692.707031 C 73.882812 701.019531 80.625 707.765625 88.941406 707.765625 L 495.53125 707.765625 Z M 585.882812 677.648438 L 104 677.648438 L 104 30.117188 L 585.882812 30.117188 L 585.882812 336.460938 L 400.765625 521.578125 C 398.835938 523.507812 397.46875 525.929688 396.804688 528.574219 L 375.507812 613.757812 C 372.75 624.789062 382.769531 634.773438 393.769531 632.019531 L 478.953125 610.722656 C 481.601562 610.0625 484.019531 608.691406 485.953125 606.761719 C 496.253906 596.460938 574.835938 517.878906 585.882812 506.832031 Z M 709.5625 340.558594 L 688.269531 361.855469 L 645.675781 319.261719 L 666.972656 297.964844 C 678.710938 286.222656 697.820312 286.21875 709.5625 297.964844 C 721.308594 309.707031 721.308594 328.816406 709.5625 340.558594 Z M 709.5625 340.558594 " fill-opacity="1" fill-rule="nonzero"/></g><path fill="#f2b076" d="M 334.46875 602.492188 L 292.847656 608.1875 C 287.453125 592.539062 271.523438 581.0625 253.523438 582.835938 C 272.140625 521.0625 231.140625 483.203125 182.230469 507.816406 C 165.011719 516.480469 148.816406 531.859375 136.621094 551.128906 C 132.175781 558.15625 134.265625 567.460938 141.296875 571.90625 C 148.324219 576.351562 157.625 574.261719 162.074219 567.234375 C 171.253906 552.726562 183.535156 540.875 195.769531 534.71875 C 205.527344 529.808594 214.261719 528.976562 219.734375 532.4375 C 225.203125 535.902344 228.191406 544.152344 227.933594 555.074219 C 227.605469 568.761719 222.152344 584.933594 212.972656 599.445312 C 209.539062 604.871094 209.925781 611.875 213.929688 616.890625 C 217.9375 621.910156 224.679688 623.839844 230.734375 621.6875 L 254.453125 613.269531 C 258.292969 611.914062 261.078125 613.839844 262.097656 614.734375 C 263.117188 615.628906 265.398438 618.136719 264.554688 622.117188 C 262.378906 632.355469 271.066406 641.578125 281.324219 640.160156 L 338.550781 632.332031 C 346.792969 631.203125 352.554688 623.609375 351.429688 615.371094 C 350.300781 607.128906 342.703125 601.359375 334.46875 602.492188 Z M 334.46875 602.492188 " fill-opacity="1" fill-rule="nonzero"/><path fill="#f2b076" d="M 179.296875 225.882812 L 510.589844 225.882812 C 518.90625 225.882812 525.648438 219.140625 525.648438 210.824219 L 525.648438 90.351562 C 525.648438 82.039062 518.90625 75.292969 510.589844 75.292969 L 179.296875 75.292969 C 170.980469 75.292969 164.234375 82.039062 164.234375 90.351562 L 164.234375 210.824219 C 164.234375 219.140625 170.980469 225.882812 179.296875 225.882812 Z M 194.355469 105.410156 L 495.53125 105.410156 L 495.53125 195.765625 L 194.355469 195.765625 Z M 194.355469 105.410156 " fill-opacity="1" fill-rule="nonzero"/><path fill="#f2b076" d="M 179.296875 286.117188 L 510.589844 286.117188 C 518.90625 286.117188 525.648438 279.375 525.648438 271.058594 C 525.648438 262.742188 518.90625 256 510.589844 256 L 179.296875 256 C 170.980469 256 164.234375 262.742188 164.234375 271.058594 C 164.234375 279.375 170.980469 286.117188 179.296875 286.117188 Z M 179.296875 286.117188 " fill-opacity="1" fill-rule="nonzero"/><path fill="#f2b076" d="M 179.296875 346.351562 L 510.589844 346.351562 C 518.90625 346.351562 525.648438 339.609375 525.648438 331.292969 C 525.648438 322.980469 518.90625 316.234375 510.589844 316.234375 L 179.296875 316.234375 C 170.980469 316.234375 164.234375 322.980469 164.234375 331.292969 C 164.234375 339.609375 170.980469 346.351562 179.296875 346.351562 Z M 179.296875 346.351562 " fill-opacity="1" fill-rule="nonzero"/><path fill="#f2b076" d="M 179.296875 406.589844 L 390.117188 406.589844 C 398.433594 406.589844 405.175781 399.84375 405.175781 391.53125 C 405.175781 383.214844 398.433594 376.46875 390.117188 376.46875 L 179.296875 376.46875 C 170.980469 376.46875 164.234375 383.214844 164.234375 391.53125 C 164.234375 399.84375 170.980469 406.589844 179.296875 406.589844 Z M 179.296875 406.589844 " fill-opacity="1" fill-rule="nonzero"/></svg>