<svg xmlns="http://www.w3.org/2000/svg" xmlns:xlink="http://www.w3.org/1999/xlink" width="1000" zoomAndPan="magnify" viewBox="0 0 750 749.999995" height="1000" preserveAspectRatio="xMidYMid meet" version="1.0"><path fill="#f2b076" d="M 354.96875 379.042969 C 353.203125 376.992188 351.484375 374.902344 349.8125 372.773438 C 348.140625 370.644531 346.515625 368.480469 344.9375 366.28125 C 343.363281 364.082031 341.835938 361.847656 340.359375 359.578125 C 338.882812 357.3125 337.457031 355.011719 336.082031 352.679688 C 334.707031 350.347656 333.386719 347.988281 332.113281 345.597656 C 330.84375 343.207031 329.628906 340.789062 328.464844 338.347656 C 327.304688 335.902344 326.195312 333.433594 325.140625 330.941406 C 324.089844 328.445312 323.09375 325.929688 322.152344 323.394531 C 321.210938 320.855469 320.324219 318.296875 319.496094 315.722656 C 318.667969 313.144531 317.898438 310.550781 317.1875 307.941406 C 316.472656 305.328125 315.820312 302.703125 315.222656 300.0625 C 314.628906 297.421875 314.089844 294.769531 313.613281 292.105469 C 313.136719 289.441406 312.714844 286.769531 312.355469 284.085938 C 311.996094 281.40625 311.699219 278.714844 311.457031 276.019531 C 311.21875 273.324219 311.039062 270.625 310.917969 267.917969 C 310.796875 265.214844 310.738281 262.511719 310.738281 259.804688 C 310.738281 257.097656 310.796875 254.390625 310.917969 251.6875 C 311.039062 248.984375 311.21875 246.285156 311.457031 243.589844 C 311.699219 240.894531 311.996094 238.203125 312.355469 235.519531 C 312.714844 232.839844 313.136719 230.164062 313.613281 227.5 C 314.089844 224.835938 314.628906 222.183594 315.222656 219.542969 C 315.820312 216.90625 316.472656 214.277344 317.1875 211.667969 C 317.898438 209.058594 318.667969 206.460938 319.496094 203.886719 C 320.324219 201.308594 321.210938 198.75 322.152344 196.214844 C 323.09375 193.675781 324.089844 191.160156 325.140625 188.667969 C 326.195312 186.175781 327.304688 183.707031 328.464844 181.261719 C 329.628906 178.816406 330.84375 176.402344 332.113281 174.011719 C 333.386719 171.621094 334.707031 169.257812 336.082031 166.929688 C 337.457031 164.597656 338.882812 162.296875 340.359375 160.027344 C 341.835938 157.761719 343.363281 155.527344 344.9375 153.328125 C 346.515625 151.125 348.140625 148.960938 349.8125 146.832031 C 351.484375 144.707031 353.203125 142.617188 354.96875 140.5625 C 347.132812 133.644531 338.699219 127.554688 329.667969 122.296875 C 320.632812 117.039062 311.175781 112.710938 301.292969 109.3125 C 299.214844 111.980469 297.199219 114.6875 295.234375 117.4375 C 293.273438 120.183594 291.367188 122.972656 289.519531 125.800781 C 287.671875 128.628906 285.882812 131.492188 284.152344 134.394531 C 282.425781 137.296875 280.753906 140.234375 279.148438 143.203125 C 277.539062 146.175781 275.996094 149.175781 274.511719 152.210938 C 273.027344 155.246094 271.605469 158.308594 270.25 161.402344 C 268.894531 164.496094 267.601562 167.617188 266.371094 170.765625 C 265.144531 173.910156 263.980469 177.082031 262.886719 180.277344 C 261.789062 183.472656 260.757812 186.6875 259.792969 189.925781 C 258.828125 193.164062 257.933594 196.417969 257.105469 199.691406 C 256.273438 202.96875 255.511719 206.257812 254.820312 209.5625 C 254.125 212.871094 253.503906 216.1875 252.945312 219.519531 C 252.390625 222.851562 251.902344 226.195312 251.484375 229.546875 C 251.066406 232.898438 250.71875 236.257812 250.441406 239.625 C 250.160156 242.988281 249.953125 246.359375 249.8125 249.734375 C 249.671875 253.109375 249.601562 256.488281 249.601562 259.863281 C 249.601562 263.242188 249.671875 266.621094 249.8125 269.996094 C 249.953125 273.371094 250.160156 276.742188 250.441406 280.105469 C 250.71875 283.472656 251.066406 286.832031 251.484375 290.183594 C 251.902344 293.535156 252.390625 296.878906 252.945312 300.210938 C 253.503906 303.542969 254.125 306.859375 254.820312 310.167969 C 255.511719 313.472656 256.273438 316.761719 257.105469 320.039062 C 257.933594 323.3125 258.828125 326.566406 259.792969 329.804688 C 260.757812 333.042969 261.789062 336.257812 262.886719 339.453125 C 263.980469 342.648438 265.144531 345.820312 266.371094 348.964844 C 267.601562 352.113281 268.894531 355.234375 270.25 358.328125 C 271.605469 361.421875 273.027344 364.484375 274.511719 367.519531 C 275.996094 370.554688 277.539062 373.554688 279.148438 376.527344 C 280.753906 379.496094 282.425781 382.433594 284.152344 385.335938 C 285.882812 388.238281 287.671875 391.101562 289.519531 393.929688 C 291.367188 396.757812 293.273438 399.546875 295.234375 402.292969 C 297.199219 405.042969 299.214844 407.75 301.292969 410.417969 C 311.171875 406.976562 320.625 402.621094 329.65625 397.339844 C 338.6875 392.0625 347.125 385.964844 354.96875 379.042969 Z M 354.96875 379.042969 " fill-opacity="1" fill-rule="nonzero"/><path fill="#f2b076" d="M 494.550781 14.707031 C 477.90625 14.714844 461.429688 16.398438 445.125 19.761719 C 428.824219 23.125 413.027344 28.097656 397.738281 34.679688 C 417.710938 47.804688 435.605469 63.328125 451.414062 81.25 C 454.5625 80.480469 457.730469 79.792969 460.914062 79.191406 C 464.097656 78.585938 467.296875 78.070312 470.507812 77.636719 C 473.71875 77.199219 476.941406 76.851562 480.171875 76.589844 C 483.402344 76.324219 486.636719 76.148438 489.878906 76.054688 C 493.117188 75.964844 496.359375 75.957031 499.597656 76.035156 C 502.839844 76.113281 506.074219 76.28125 509.304688 76.53125 C 512.539062 76.78125 515.761719 77.117188 518.972656 77.535156 C 522.1875 77.957031 525.386719 78.464844 528.574219 79.054688 C 531.761719 79.644531 534.933594 80.316406 538.082031 81.074219 C 541.234375 81.832031 544.363281 82.671875 547.472656 83.597656 C 550.578125 84.519531 553.660156 85.523438 556.710938 86.609375 C 559.765625 87.695312 562.789062 88.863281 565.78125 90.109375 C 568.773438 91.355469 571.730469 92.679688 574.652344 94.082031 C 577.574219 95.484375 580.457031 96.964844 583.300781 98.519531 C 586.144531 100.074219 588.945312 101.703125 591.703125 103.40625 C 594.460938 105.109375 597.171875 106.882812 599.835938 108.730469 C 602.5 110.578125 605.113281 112.492188 607.675781 114.476562 C 610.238281 116.460938 612.746094 118.511719 615.199219 120.632812 C 617.652344 122.75 620.050781 124.929688 622.390625 127.171875 C 624.726562 129.417969 627.003906 131.722656 629.222656 134.085938 C 631.4375 136.453125 633.589844 138.875 635.679688 141.351562 C 637.769531 143.832031 639.789062 146.363281 641.746094 148.949219 C 643.699219 151.535156 645.585938 154.167969 647.398438 156.855469 C 649.214844 159.539062 650.957031 162.269531 652.628906 165.046875 C 654.300781 167.824219 655.894531 170.644531 657.417969 173.507812 C 658.9375 176.371094 660.382812 179.269531 661.753906 182.207031 C 663.121094 185.144531 664.410156 188.117188 665.621094 191.125 C 666.832031 194.132812 667.960938 197.167969 669.011719 200.234375 C 670.0625 203.300781 671.03125 206.394531 671.917969 209.511719 C 672.804688 212.628906 673.609375 215.765625 674.332031 218.925781 C 675.050781 222.085938 675.6875 225.265625 676.242188 228.457031 C 676.792969 231.652344 677.261719 234.855469 677.644531 238.074219 C 678.027344 241.292969 678.324219 244.519531 678.539062 247.753906 C 678.75 250.988281 678.875 254.226562 678.917969 257.46875 C 678.960938 260.707031 678.914062 263.949219 678.785156 267.1875 C 678.65625 270.425781 678.4375 273.660156 678.136719 276.886719 C 677.835938 280.113281 677.449219 283.332031 676.980469 286.539062 C 676.507812 289.742188 675.953125 292.9375 675.3125 296.113281 C 674.671875 299.289062 673.949219 302.449219 673.140625 305.589844 C 672.332031 308.726562 671.441406 311.84375 670.472656 314.933594 C 669.5 318.027344 668.445312 321.089844 667.3125 324.128906 C 666.175781 327.164062 664.964844 330.167969 663.671875 333.140625 C 662.378906 336.113281 661.007812 339.046875 659.558594 341.949219 C 658.109375 344.847656 656.585938 347.707031 654.988281 350.527344 C 653.386719 353.34375 651.714844 356.121094 649.96875 358.851562 C 648.222656 361.582031 646.402344 364.261719 644.515625 366.898438 C 642.628906 369.53125 640.671875 372.113281 638.644531 374.644531 C 636.621094 377.175781 634.53125 379.652344 632.375 382.074219 C 630.21875 384.492188 628 386.855469 625.71875 389.15625 C 623.4375 391.460938 621.097656 393.703125 618.699219 395.878906 C 616.300781 398.058594 613.84375 400.175781 611.332031 402.222656 C 608.824219 404.273438 606.257812 406.253906 603.644531 408.167969 C 601.027344 410.082031 598.363281 411.925781 595.648438 413.699219 C 592.933594 415.46875 590.175781 417.167969 587.375 418.796875 C 584.570312 420.421875 581.726562 421.976562 578.839844 423.453125 C 575.953125 424.929688 573.03125 426.328125 570.074219 427.648438 C 567.113281 428.96875 564.121094 430.214844 561.09375 431.375 C 558.070312 432.539062 555.015625 433.621094 551.933594 434.625 C 548.851562 435.625 545.746094 436.546875 542.613281 437.382812 C 539.480469 438.222656 536.332031 438.976562 533.160156 439.648438 C 529.988281 440.316406 526.800781 440.90625 523.601562 441.40625 C 520.398438 441.910156 517.183594 442.328125 513.960938 442.660156 C 510.738281 442.992188 507.507812 443.238281 504.269531 443.398438 C 501.03125 443.5625 497.792969 443.636719 494.550781 443.628906 C 479.964844 443.566406 465.585938 441.808594 451.414062 438.359375 C 435.222656 456.605469 416.921875 472.414062 396.511719 485.785156 L 396.511719 566.175781 C 396.511719 566.980469 396.589844 567.777344 396.746094 568.566406 C 396.90625 569.355469 397.136719 570.121094 397.445312 570.867188 C 397.753906 571.609375 398.128906 572.316406 398.578125 572.984375 C 399.023438 573.652344 399.53125 574.273438 400.101562 574.84375 C 400.671875 575.410156 401.289062 575.917969 401.957031 576.367188 C 402.628906 576.8125 403.332031 577.191406 404.078125 577.5 C 404.820312 577.804688 405.585938 578.039062 406.375 578.195312 C 407.164062 578.351562 407.960938 578.429688 408.765625 578.429688 L 482.296875 578.429688 L 482.296875 594.484375 C 480.949219 594.484375 479.476562 594.484375 478.128906 595.21875 C 475.796875 595.847656 473.550781 596.695312 471.386719 597.765625 C 469.222656 598.835938 467.183594 600.109375 465.269531 601.582031 C 463.359375 603.050781 461.605469 604.695312 460.015625 606.515625 C 458.425781 608.332031 457.03125 610.285156 455.824219 612.378906 L 431.316406 654.78125 C 429.90625 657.25 428.800781 659.847656 427.996094 662.574219 C 427.191406 665.300781 426.707031 668.085938 426.550781 670.921875 C 426.390625 673.761719 426.558594 676.582031 427.050781 679.382812 C 427.546875 682.179688 428.355469 684.886719 429.476562 687.5 L 425.800781 691.175781 C 424.09375 688.902344 422.152344 686.851562 419.96875 685.027344 C 417.789062 683.203125 415.425781 681.65625 412.886719 680.378906 C 410.34375 679.101562 407.691406 678.136719 404.925781 677.476562 C 402.160156 676.816406 399.355469 676.480469 396.511719 676.46875 L 347.492188 676.46875 C 344.648438 676.480469 341.84375 676.816406 339.078125 677.476562 C 336.3125 678.136719 333.660156 679.101562 331.117188 680.378906 C 328.578125 681.65625 326.214844 683.203125 324.035156 685.027344 C 321.851562 686.851562 319.910156 688.902344 318.203125 691.175781 L 314.527344 687.5 C 315.648438 684.886719 316.457031 682.179688 316.953125 679.382812 C 317.445312 676.582031 317.613281 673.761719 317.457031 670.921875 C 317.296875 668.085938 316.8125 665.300781 316.007812 662.574219 C 315.203125 659.847656 314.097656 657.25 312.6875 654.78125 L 288.179688 612.378906 C 286.972656 610.285156 285.578125 608.332031 283.988281 606.515625 C 282.398438 604.695312 280.648438 603.050781 278.734375 601.582031 C 276.820312 600.109375 274.78125 598.835938 272.617188 597.765625 C 270.453125 596.695312 268.207031 595.847656 265.875 595.21875 C 264.527344 595.21875 263.054688 595.21875 261.707031 594.484375 L 261.707031 578.429688 L 335.238281 578.429688 C 336.042969 578.429688 336.839844 578.351562 337.628906 578.195312 C 338.417969 578.039062 339.183594 577.804688 339.925781 577.5 C 340.671875 577.191406 341.375 576.8125 342.046875 576.367188 C 342.714844 575.917969 343.332031 575.410156 343.902344 574.84375 C 344.472656 574.273438 344.980469 573.652344 345.425781 572.984375 C 345.875 572.316406 346.25 571.609375 346.558594 570.867188 C 346.867188 570.121094 347.101562 569.355469 347.257812 568.566406 C 347.414062 567.777344 347.492188 566.980469 347.492188 566.175781 L 347.492188 484.4375 C 350.847656 482.972656 354.167969 481.433594 357.453125 479.820312 C 360.742188 478.207031 363.988281 476.519531 367.199219 474.761719 C 370.410156 473.003906 373.582031 471.175781 376.710938 469.273438 C 379.835938 467.371094 382.921875 465.402344 385.960938 463.363281 C 389.003906 461.324219 391.996094 459.21875 394.941406 457.046875 C 397.890625 454.871094 400.785156 452.636719 403.628906 450.332031 C 406.476562 448.03125 409.269531 445.664062 412.007812 443.234375 C 414.75 440.808594 417.433594 438.320312 420.0625 435.773438 C 422.691406 433.222656 425.257812 430.617188 427.769531 427.953125 C 430.28125 425.289062 432.734375 422.574219 435.125 419.800781 C 437.511719 417.027344 439.839844 414.199219 442.101562 411.324219 C 444.367188 408.445312 446.5625 405.519531 448.695312 402.542969 C 450.828125 399.566406 452.890625 396.546875 454.886719 393.476562 C 456.886719 390.410156 458.8125 387.296875 460.667969 384.140625 C 462.527344 380.988281 464.3125 377.792969 466.027344 374.558594 C 467.738281 371.324219 469.378906 368.050781 470.949219 364.742188 C 472.515625 361.433594 474.007812 358.09375 475.425781 354.71875 C 476.84375 351.34375 478.183594 347.9375 479.449219 344.503906 C 480.714844 341.066406 481.902344 337.605469 483.011719 334.117188 C 484.121094 330.628906 485.152344 327.117188 486.105469 323.582031 C 487.058594 320.046875 487.933594 316.492188 488.726562 312.917969 C 489.519531 309.347656 490.230469 305.757812 490.863281 302.148438 C 491.496094 298.542969 492.046875 294.925781 492.519531 291.296875 C 492.988281 287.664062 493.378906 284.027344 493.6875 280.378906 C 493.992188 276.730469 494.21875 273.078125 494.363281 269.417969 C 494.507812 265.761719 494.566406 262.101562 494.546875 258.441406 C 494.527344 254.78125 494.425781 251.121094 494.242188 247.464844 C 494.054688 243.808594 493.789062 240.160156 493.441406 236.515625 C 493.09375 232.871094 492.664062 229.238281 492.15625 225.613281 C 491.644531 221.988281 491.050781 218.375 490.378906 214.777344 C 489.707031 211.175781 488.953125 207.597656 488.121094 204.03125 C 487.289062 200.464844 486.375 196.921875 485.386719 193.398438 C 484.394531 189.875 483.324219 186.375 482.175781 182.898438 C 481.027344 179.421875 479.800781 175.972656 478.496094 172.554688 C 477.195312 169.132812 475.8125 165.742188 474.359375 162.382812 C 472.90625 159.023438 471.375 155.699219 469.769531 152.40625 C 468.167969 149.117188 466.488281 145.863281 464.738281 142.648438 C 462.992188 139.433594 461.167969 136.257812 459.277344 133.125 C 457.386719 129.988281 455.425781 126.898438 453.394531 123.855469 C 451.363281 120.808594 449.265625 117.808594 447.101562 114.855469 C 444.933594 111.90625 442.707031 109.003906 440.410156 106.148438 C 438.117188 103.296875 435.757812 100.5 433.335938 97.753906 C 430.917969 95.003906 428.4375 92.316406 425.894531 89.679688 C 423.355469 87.042969 420.757812 84.46875 418.097656 81.949219 C 415.441406 79.429688 412.730469 76.972656 409.964844 74.574219 C 407.199219 72.175781 404.378906 69.839844 401.507812 67.570312 C 398.636719 65.300781 395.714844 63.09375 392.746094 60.953125 C 389.777344 58.8125 386.761719 56.742188 383.699219 54.734375 C 380.632812 52.730469 377.527344 50.796875 374.378906 48.929688 C 371.230469 47.0625 368.039062 45.269531 364.808594 43.546875 C 361.578125 41.824219 358.3125 40.171875 355.007812 38.597656 C 351.703125 37.019531 348.367188 35.519531 344.996094 34.089844 C 341.625 32.664062 338.222656 31.3125 334.792969 30.039062 C 331.359375 28.765625 327.902344 27.566406 324.414062 26.445312 C 320.929688 25.328125 317.421875 24.285156 313.890625 23.324219 C 310.355469 22.363281 306.804688 21.480469 303.234375 20.675781 C 299.664062 19.871094 296.074219 19.148438 292.46875 18.507812 C 288.867188 17.863281 285.25 17.304688 281.621094 16.824219 C 277.992188 16.34375 274.351562 15.941406 270.707031 15.625 C 267.058594 15.308594 263.40625 15.074219 259.75 14.917969 C 256.09375 14.765625 252.433594 14.691406 248.773438 14.703125 C 245.109375 14.714844 241.453125 14.804688 237.796875 14.980469 C 234.140625 15.152344 230.488281 15.410156 226.84375 15.746094 C 223.199219 16.085938 219.5625 16.503906 215.933594 17.003906 C 212.308594 17.503906 208.695312 18.085938 205.09375 18.75 C 201.496094 19.410156 197.910156 20.15625 194.34375 20.976562 C 190.777344 21.800781 187.230469 22.703125 183.703125 23.683594 C 180.175781 24.667969 176.675781 25.726562 173.195312 26.867188 C 169.714844 28.003906 166.265625 29.222656 162.839844 30.515625 C 159.414062 31.808594 156.023438 33.179688 152.660156 34.625 C 149.296875 36.070312 145.964844 37.589844 142.671875 39.1875 C 139.375 40.78125 136.117188 42.449219 132.898438 44.1875 C 129.675781 45.929688 126.496094 47.742188 123.359375 49.625 C 120.21875 51.507812 117.125 53.460938 114.070312 55.484375 C 111.019531 57.503906 108.015625 59.59375 105.058594 61.75 C 102.101562 63.910156 99.191406 66.128906 96.332031 68.417969 C 93.472656 70.703125 90.667969 73.054688 87.914062 75.46875 C 85.164062 77.878906 82.464844 80.351562 79.820312 82.886719 C 77.179688 85.421875 74.59375 88.011719 72.070312 90.660156 C 69.542969 93.3125 67.078125 96.015625 64.671875 98.777344 C 62.265625 101.535156 59.925781 104.347656 57.644531 107.210938 C 55.367188 110.078125 53.152344 112.992188 51.003906 115.957031 C 48.855469 118.921875 46.773438 121.929688 44.761719 124.988281 C 42.75 128.046875 40.804688 131.144531 38.929688 134.289062 C 37.054688 137.433594 35.25 140.621094 33.519531 143.84375 C 31.789062 147.070312 30.128906 150.332031 28.542969 153.632812 C 26.957031 156.933594 25.445312 160.265625 24.011719 163.632812 C 22.574219 167 21.214844 170.398438 19.929688 173.828125 C 18.644531 177.253906 17.4375 180.710938 16.308594 184.191406 C 15.179688 187.675781 14.128906 191.179688 13.15625 194.710938 C 12.183594 198.238281 11.292969 201.789062 10.480469 205.359375 C 9.664062 208.925781 8.933594 212.511719 8.28125 216.117188 C 7.628906 219.71875 7.054688 223.332031 6.566406 226.960938 C 6.074219 230.589844 5.664062 234.226562 5.339844 237.871094 C 5.011719 241.519531 4.765625 245.167969 4.601562 248.828125 C 4.4375 252.484375 4.355469 256.144531 4.355469 259.804688 C 4.34375 262.765625 4.386719 265.726562 4.480469 268.6875 C 4.578125 271.648438 4.730469 274.609375 4.933594 277.5625 C 5.136719 280.519531 5.394531 283.46875 5.707031 286.414062 C 6.019531 289.359375 6.382812 292.300781 6.804688 295.234375 C 7.222656 298.164062 7.695312 301.089844 8.222656 304.003906 C 8.746094 306.917969 9.324219 309.824219 9.957031 312.71875 C 10.589844 315.613281 11.273438 318.496094 12.011719 321.363281 C 12.746094 324.234375 13.535156 327.089844 14.378906 329.929688 C 15.21875 332.769531 16.109375 335.59375 17.054688 338.402344 C 18 341.210938 18.992188 344 20.039062 346.769531 C 21.085938 349.542969 22.179688 352.292969 23.328125 355.027344 C 24.472656 357.757812 25.667969 360.46875 26.914062 363.15625 C 28.160156 365.84375 29.453125 368.507812 30.796875 371.148438 C 32.136719 373.789062 33.527344 376.40625 34.964844 378.996094 C 36.402344 381.585938 37.886719 384.148438 39.417969 386.683594 C 40.949219 389.21875 42.527344 391.726562 44.148438 394.207031 C 45.769531 396.683594 47.4375 399.132812 49.148438 401.550781 C 50.863281 403.96875 52.617188 406.355469 54.417969 408.707031 C 56.214844 411.0625 58.054688 413.382812 59.941406 415.667969 C 61.824219 417.953125 63.746094 420.207031 65.714844 422.421875 C 67.679688 424.636719 69.683594 426.816406 71.730469 428.960938 C 73.773438 431.105469 75.859375 433.207031 77.980469 435.277344 C 80.101562 437.34375 82.261719 439.371094 84.457031 441.359375 C 86.652344 443.347656 88.886719 445.296875 91.152344 447.203125 C 93.417969 449.109375 95.71875 450.972656 98.054688 452.796875 C 100.390625 454.621094 102.757812 456.398438 105.15625 458.136719 C 107.558594 459.875 109.988281 461.566406 112.449219 463.214844 C 114.910156 464.863281 117.402344 466.464844 119.921875 468.019531 C 122.441406 469.578125 124.988281 471.089844 127.566406 472.554688 C 130.140625 474.015625 132.742188 475.433594 135.367188 476.804688 C 137.996094 478.171875 140.648438 479.492188 143.320312 480.765625 C 145.996094 482.039062 148.695312 483.261719 151.414062 484.4375 L 151.414062 566.175781 C 151.414062 566.980469 151.492188 567.777344 151.648438 568.566406 C 151.804688 569.355469 152.039062 570.121094 152.347656 570.867188 C 152.65625 571.609375 153.03125 572.316406 153.480469 572.984375 C 153.925781 573.652344 154.433594 574.273438 155.003906 574.84375 C 155.574219 575.410156 156.191406 575.917969 156.859375 576.367188 C 157.53125 576.8125 158.234375 577.191406 158.980469 577.5 C 159.722656 577.804688 160.488281 578.039062 161.277344 578.195312 C 162.066406 578.351562 162.863281 578.429688 163.667969 578.429688 L 237.199219 578.429688 L 237.199219 599.507812 C 236.199219 600.136719 235.234375 600.808594 234.300781 601.527344 C 233.367188 602.246094 232.46875 603.007812 231.609375 603.8125 C 230.746094 604.617188 229.925781 605.464844 229.148438 606.347656 C 228.367188 607.230469 227.632812 608.152344 226.941406 609.105469 C 226.25 610.058594 225.605469 611.046875 225.011719 612.0625 C 224.414062 613.078125 223.867188 614.121094 223.371094 615.191406 C 222.875 616.261719 222.433594 617.351562 222.042969 618.464844 C 221.652344 619.574219 221.316406 620.703125 221.03125 621.847656 C 220.75 622.992188 220.523438 624.148438 220.351562 625.3125 C 220.179688 626.480469 220.066406 627.652344 220.003906 628.828125 C 219.945312 630.003906 219.945312 631.183594 220 632.359375 C 220.054688 633.535156 220.164062 634.707031 220.332031 635.875 C 220.5 637.042969 220.722656 638.199219 221 639.34375 C 221.277344 640.488281 221.609375 641.617188 222 642.730469 C 222.386719 643.84375 222.824219 644.9375 223.316406 646.007812 C 223.808594 647.078125 224.351562 648.125 224.941406 649.140625 L 249.453125 691.542969 C 250.664062 693.640625 252.070312 695.601562 253.667969 697.421875 C 255.269531 699.242188 257.027344 700.890625 258.953125 702.363281 C 260.878906 703.832031 262.929688 705.101562 265.101562 706.171875 C 267.277344 707.238281 269.539062 708.082031 271.878906 708.699219 C 275.011719 709.539062 278.195312 709.949219 281.4375 709.925781 C 284.414062 709.890625 287.34375 709.5 290.222656 708.753906 C 293.105469 708.007812 295.855469 706.929688 298.472656 705.515625 L 311.832031 718.871094 C 311.996094 719.933594 312.203125 720.980469 312.460938 722.023438 C 312.71875 723.0625 313.019531 724.09375 313.363281 725.105469 C 313.710938 726.121094 314.101562 727.121094 314.53125 728.101562 C 314.964844 729.082031 315.441406 730.039062 315.957031 730.980469 C 316.476562 731.917969 317.035156 732.832031 317.628906 733.722656 C 318.226562 734.613281 318.863281 735.476562 319.535156 736.3125 C 320.207031 737.144531 320.917969 737.949219 321.660156 738.722656 C 322.402344 739.496094 323.179688 740.234375 323.984375 740.9375 C 324.792969 741.644531 325.628906 742.3125 326.496094 742.945312 C 327.363281 743.574219 328.253906 744.167969 329.171875 744.722656 C 330.089844 745.277344 331.03125 745.789062 331.992188 746.261719 C 332.957031 746.730469 333.9375 747.160156 334.9375 747.546875 C 335.9375 747.929688 336.953125 748.273438 337.984375 748.570312 C 339.015625 748.867188 340.054688 749.117188 341.109375 749.324219 C 342.160156 749.527344 343.21875 749.6875 344.285156 749.800781 C 345.351562 749.914062 346.421875 749.980469 347.492188 750 L 396.511719 750 C 397.605469 750.011719 398.699219 749.976562 399.792969 749.890625 C 400.882812 749.808594 401.96875 749.675781 403.050781 749.492188 C 404.128906 749.3125 405.199219 749.082031 406.257812 748.804688 C 407.316406 748.527344 408.363281 748.203125 409.394531 747.832031 C 410.421875 747.460938 411.433594 747.042969 412.429688 746.582031 C 413.421875 746.121094 414.390625 745.617188 415.339844 745.070312 C 416.289062 744.523438 417.210938 743.933594 418.105469 743.304688 C 419 742.671875 419.867188 742.003906 420.703125 741.296875 C 421.539062 740.589844 422.339844 739.84375 423.109375 739.066406 C 423.878906 738.285156 424.613281 737.476562 425.308594 736.628906 C 426.007812 735.785156 426.664062 734.910156 427.28125 734.007812 C 427.902344 733.105469 428.476562 732.175781 429.011719 731.21875 C 429.550781 730.265625 430.042969 729.285156 430.488281 728.289062 C 430.9375 727.289062 431.339844 726.273438 431.699219 725.238281 C 432.054688 724.203125 432.367188 723.152344 432.628906 722.089844 C 432.894531 721.027344 433.109375 719.953125 433.277344 718.871094 L 445.53125 705.515625 C 448.148438 706.929688 450.898438 708.007812 453.78125 708.753906 C 456.660156 709.5 459.589844 709.890625 462.566406 709.925781 C 465.808594 709.949219 468.992188 709.539062 472.125 708.699219 C 474.46875 708.082031 476.726562 707.238281 478.902344 706.171875 C 481.078125 705.101562 483.125 703.832031 485.050781 702.363281 C 486.976562 700.890625 488.738281 699.242188 490.335938 697.421875 C 491.933594 695.601562 493.339844 693.640625 494.550781 691.542969 L 519.0625 649.140625 C 519.652344 648.125 520.195312 647.078125 520.6875 646.007812 C 521.179688 644.9375 521.621094 643.84375 522.007812 642.730469 C 522.394531 641.617188 522.726562 640.488281 523.003906 639.34375 C 523.28125 638.199219 523.503906 637.042969 523.671875 635.875 C 523.839844 634.707031 523.949219 633.535156 524.003906 632.359375 C 524.058594 631.183594 524.058594 630.003906 524 628.828125 C 523.941406 627.652344 523.824219 626.480469 523.652344 625.3125 C 523.480469 624.148438 523.253906 622.992188 522.972656 621.847656 C 522.691406 620.703125 522.351562 619.574219 521.960938 618.464844 C 521.570312 617.351562 521.128906 616.261719 520.632812 615.191406 C 520.136719 614.121094 519.589844 613.078125 518.992188 612.0625 C 518.398438 611.046875 517.753906 610.058594 517.0625 609.105469 C 516.371094 608.152344 515.636719 607.230469 514.855469 606.347656 C 514.078125 605.464844 513.257812 604.617188 512.398438 603.8125 C 511.535156 603.007812 510.640625 602.246094 509.703125 601.527344 C 508.769531 600.808594 507.804688 600.136719 506.804688 599.507812 L 506.804688 578.429688 L 580.335938 578.429688 C 581.140625 578.429688 581.9375 578.351562 582.726562 578.195312 C 583.515625 578.039062 584.28125 577.804688 585.023438 577.5 C 585.769531 577.191406 586.476562 576.8125 587.144531 576.367188 C 587.8125 575.917969 588.433594 575.410156 589 574.84375 C 589.570312 574.273438 590.078125 573.652344 590.523438 572.984375 C 590.972656 572.316406 591.347656 571.609375 591.65625 570.867188 C 591.964844 570.121094 592.199219 569.355469 592.355469 568.566406 C 592.511719 567.777344 592.589844 566.980469 592.589844 566.175781 L 592.589844 484.4375 C 595.785156 483.042969 598.949219 481.582031 602.082031 480.050781 C 605.210938 478.523438 608.308594 476.925781 611.375 475.265625 C 614.4375 473.601562 617.464844 471.878906 620.457031 470.085938 C 623.445312 468.296875 626.398438 466.441406 629.308594 464.527344 C 632.21875 462.609375 635.089844 460.632812 637.917969 458.59375 C 640.742188 456.554688 643.527344 454.457031 646.261719 452.296875 C 649 450.140625 651.691406 447.925781 654.332031 445.652344 C 656.976562 443.382812 659.570312 441.054688 662.113281 438.671875 C 664.65625 436.289062 667.148438 433.851562 669.589844 431.363281 C 672.027344 428.871094 674.414062 426.332031 676.746094 423.742188 C 679.078125 421.148438 681.351562 418.511719 683.570312 415.820312 C 685.789062 413.132812 687.949219 410.398438 690.050781 407.621094 C 692.152344 404.839844 694.195312 402.015625 696.175781 399.148438 C 698.160156 396.28125 700.078125 393.371094 701.9375 390.421875 C 703.792969 387.472656 705.585938 384.484375 707.316406 381.460938 C 709.046875 378.433594 710.710938 375.371094 712.3125 372.277344 C 713.910156 369.179688 715.441406 366.050781 716.910156 362.886719 C 718.375 359.726562 719.773438 356.53125 721.101562 353.3125 C 722.433594 350.089844 723.691406 346.839844 724.882812 343.566406 C 726.074219 340.289062 727.195312 336.988281 728.246094 333.664062 C 729.296875 330.34375 730.277344 327 731.183594 323.632812 C 732.089844 320.269531 732.925781 316.882812 733.691406 313.484375 C 734.453125 310.082031 735.144531 306.667969 735.761719 303.238281 C 736.378906 299.804688 736.921875 296.363281 737.394531 292.910156 C 737.867188 289.457031 738.261719 285.996094 738.585938 282.523438 C 738.910156 279.054688 739.15625 275.578125 739.332031 272.097656 C 739.507812 268.617188 739.609375 265.132812 739.632812 261.648438 C 739.660156 258.160156 739.613281 254.675781 739.488281 251.195312 C 739.367188 247.710938 739.171875 244.230469 738.898438 240.757812 C 738.628906 237.28125 738.285156 233.8125 737.863281 230.355469 C 737.445312 226.894531 736.953125 223.445312 736.386719 220.003906 C 735.820312 216.566406 735.183594 213.140625 734.472656 209.726562 C 733.757812 206.316406 732.972656 202.921875 732.117188 199.542969 C 731.261719 196.164062 730.332031 192.804688 729.332031 189.464844 C 728.332031 186.125 727.261719 182.8125 726.117188 179.515625 C 724.976562 176.222656 723.765625 172.957031 722.484375 169.714844 C 721.203125 166.472656 719.851562 163.261719 718.433594 160.078125 C 717.015625 156.894531 715.53125 153.742188 713.976562 150.621094 C 712.425781 147.5 710.808594 144.414062 709.121094 141.363281 C 707.4375 138.3125 705.691406 135.296875 703.875 132.320312 C 702.0625 129.34375 700.1875 126.40625 698.25 123.507812 C 696.3125 120.613281 694.3125 117.757812 692.253906 114.945312 C 690.191406 112.132812 688.074219 109.367188 685.894531 106.648438 C 683.71875 103.925781 681.484375 101.253906 679.191406 98.625 C 676.898438 96 674.550781 93.425781 672.148438 90.898438 C 669.746094 88.371094 667.292969 85.898438 664.785156 83.480469 C 662.277344 81.058594 659.71875 78.691406 657.109375 76.378906 C 654.503906 74.066406 651.847656 71.8125 649.140625 69.613281 C 646.4375 67.414062 643.6875 65.273438 640.890625 63.195312 C 638.09375 61.113281 635.253906 59.09375 632.375 57.132812 C 629.492188 55.171875 626.570312 53.273438 623.605469 51.4375 C 620.640625 49.605469 617.640625 47.832031 614.601562 46.125 C 611.5625 44.417969 608.488281 42.777344 605.382812 41.199219 C 602.273438 39.625 599.132812 38.113281 595.957031 36.671875 C 592.785156 35.230469 589.582031 33.855469 586.351562 32.550781 C 583.121094 31.246094 579.859375 30.007812 576.578125 28.839844 C 573.292969 27.675781 569.984375 26.578125 566.652344 25.554688 C 563.320312 24.527344 559.96875 23.574219 556.597656 22.691406 C 553.226562 21.808594 549.835938 21 546.429688 20.261719 C 543.023438 19.523438 539.601562 18.859375 536.167969 18.265625 C 532.734375 17.675781 529.289062 17.15625 525.832031 16.710938 C 522.375 16.265625 518.910156 15.894531 515.4375 15.597656 C 511.964844 15.300781 508.484375 15.078125 505.003906 14.929688 C 501.519531 14.78125 498.035156 14.707031 494.550781 14.707031 Z M 65.628906 259.804688 C 65.628906 256.796875 65.703125 253.789062 65.851562 250.785156 C 66 247.78125 66.21875 244.78125 66.515625 241.785156 C 66.808594 238.792969 67.179688 235.808594 67.621094 232.832031 C 68.0625 229.855469 68.574219 226.890625 69.160156 223.941406 C 69.75 220.992188 70.40625 218.058594 71.136719 215.136719 C 71.871094 212.21875 72.671875 209.320312 73.546875 206.441406 C 74.417969 203.5625 75.363281 200.707031 76.375 197.875 C 77.390625 195.042969 78.472656 192.238281 79.621094 189.457031 C 80.773438 186.679688 81.992188 183.929688 83.277344 181.210938 C 84.566406 178.488281 85.917969 175.804688 87.335938 173.148438 C 88.753906 170.496094 90.234375 167.878906 91.78125 165.300781 C 93.328125 162.71875 94.9375 160.179688 96.609375 157.675781 C 98.28125 155.175781 100.011719 152.714844 101.804688 150.300781 C 103.597656 147.882812 105.445312 145.511719 107.355469 143.1875 C 109.265625 140.863281 111.230469 138.585938 113.25 136.355469 C 115.269531 134.125 117.34375 131.949219 119.46875 129.820312 C 121.597656 127.695312 123.777344 125.621094 126.003906 123.601562 C 128.234375 121.578125 130.511719 119.613281 132.835938 117.707031 C 135.164062 115.796875 137.535156 113.949219 139.949219 112.15625 C 142.367188 110.363281 144.824219 108.632812 147.328125 106.960938 C 149.828125 105.289062 152.367188 103.679688 154.949219 102.132812 C 157.53125 100.585938 160.144531 99.105469 162.800781 97.6875 C 165.453125 96.269531 168.140625 94.914062 170.859375 93.628906 C 173.578125 92.34375 176.328125 91.125 179.105469 89.972656 C 181.886719 88.820312 184.691406 87.738281 187.523438 86.726562 C 190.355469 85.710938 193.214844 84.769531 196.09375 83.894531 C 198.972656 83.023438 201.871094 82.21875 204.789062 81.488281 C 207.707031 80.757812 210.640625 80.097656 213.589844 79.511719 C 216.542969 78.925781 219.503906 78.410156 222.480469 77.96875 C 225.457031 77.527344 228.441406 77.160156 231.433594 76.867188 C 234.429688 76.570312 237.429688 76.347656 240.433594 76.203125 C 243.4375 76.054688 246.445312 75.980469 249.453125 75.980469 C 252.460938 75.980469 255.46875 76.054688 258.472656 76.203125 C 261.476562 76.347656 264.476562 76.570312 267.472656 76.867188 C 270.464844 77.160156 273.449219 77.527344 276.425781 77.96875 C 279.402344 78.410156 282.363281 78.925781 285.316406 79.511719 C 288.265625 80.097656 291.199219 80.757812 294.117188 81.488281 C 297.035156 82.21875 299.933594 83.023438 302.8125 83.894531 C 305.691406 84.769531 308.546875 85.710938 311.382812 86.726562 C 314.214844 87.738281 317.019531 88.820312 319.800781 89.972656 C 322.578125 91.125 325.328125 92.34375 328.046875 93.628906 C 330.765625 94.914062 333.453125 96.269531 336.105469 97.6875 C 338.761719 99.105469 341.375 100.585938 343.957031 102.132812 C 346.539062 103.679688 349.078125 105.289062 351.578125 106.960938 C 354.082031 108.632812 356.539062 110.363281 358.957031 112.15625 C 361.371094 113.949219 363.742188 115.796875 366.070312 117.707031 C 368.394531 119.613281 370.671875 121.578125 372.902344 123.601562 C 375.128906 125.621094 377.308594 127.695312 379.4375 129.820312 C 381.5625 131.949219 383.636719 134.125 385.65625 136.355469 C 387.675781 138.585938 389.640625 140.863281 391.550781 143.1875 C 393.460938 145.511719 395.308594 147.882812 397.101562 150.300781 C 398.894531 152.714844 400.625 155.175781 402.296875 157.675781 C 403.96875 160.179688 405.578125 162.71875 407.125 165.300781 C 408.671875 167.878906 410.152344 170.496094 411.570312 173.148438 C 412.988281 175.804688 414.339844 178.488281 415.628906 181.210938 C 416.914062 183.929688 418.132812 186.679688 419.285156 189.457031 C 420.433594 192.238281 421.515625 195.042969 422.53125 197.875 C 423.542969 200.707031 424.488281 203.5625 425.359375 206.441406 C 426.234375 209.320312 427.035156 212.21875 427.769531 215.136719 C 428.5 218.058594 429.15625 220.992188 429.746094 223.941406 C 430.332031 226.890625 430.84375 229.855469 431.285156 232.832031 C 431.726562 235.808594 432.097656 238.792969 432.390625 241.785156 C 432.6875 244.78125 432.90625 247.78125 433.054688 250.785156 C 433.203125 253.789062 433.277344 256.796875 433.277344 259.804688 C 433.277344 262.8125 433.203125 265.820312 433.054688 268.824219 C 432.90625 271.828125 432.6875 274.828125 432.390625 277.820312 C 432.097656 280.816406 431.726562 283.800781 431.285156 286.777344 C 430.84375 289.753906 430.332031 292.714844 429.746094 295.667969 C 429.15625 298.617188 428.5 301.550781 427.769531 304.46875 C 427.035156 307.386719 426.234375 310.285156 425.359375 313.164062 C 424.488281 316.042969 423.542969 318.898438 422.53125 321.730469 C 421.515625 324.566406 420.433594 327.371094 419.285156 330.148438 C 418.132812 332.929688 416.914062 335.679688 415.628906 338.398438 C 414.339844 341.117188 412.988281 343.804688 411.570312 346.457031 C 410.152344 349.109375 408.671875 351.726562 407.125 354.308594 C 405.578125 356.886719 403.96875 359.429688 402.296875 361.929688 C 400.625 364.433594 398.894531 366.890625 397.101562 369.308594 C 395.308594 371.722656 393.460938 374.09375 391.550781 376.421875 C 389.640625 378.746094 387.675781 381.023438 385.65625 383.253906 C 383.636719 385.480469 381.5625 387.660156 379.4375 389.785156 C 377.308594 391.914062 375.128906 393.988281 372.902344 396.007812 C 370.671875 398.027344 368.394531 399.992188 366.070312 401.902344 C 363.742188 403.808594 361.371094 405.660156 358.957031 407.453125 C 356.539062 409.246094 354.082031 410.976562 351.578125 412.648438 C 349.078125 414.320312 346.539062 415.929688 343.957031 417.472656 C 341.375 419.019531 338.761719 420.503906 336.105469 421.921875 C 333.453125 423.339844 330.765625 424.691406 328.046875 425.976562 C 325.328125 427.265625 322.578125 428.484375 319.800781 429.632812 C 317.019531 430.785156 314.214844 431.867188 311.382812 432.882812 C 308.546875 433.894531 305.691406 434.839844 302.8125 435.710938 C 299.933594 436.585938 297.035156 437.386719 294.117188 438.117188 C 291.199219 438.847656 288.265625 439.507812 285.316406 440.09375 C 282.363281 440.683594 279.402344 441.195312 276.425781 441.636719 C 273.449219 442.078125 270.464844 442.449219 267.472656 442.742188 C 264.476562 443.039062 261.476562 443.257812 258.472656 443.40625 C 255.46875 443.554688 252.460938 443.628906 249.453125 443.628906 C 246.445312 443.628906 243.4375 443.554688 240.433594 443.40625 C 237.429688 443.257812 234.429688 443.039062 231.433594 442.742188 C 228.441406 442.449219 225.457031 442.078125 222.480469 441.636719 C 219.503906 441.195312 216.542969 440.683594 213.589844 440.09375 C 210.640625 439.507812 207.707031 438.847656 204.789062 438.117188 C 201.871094 437.386719 198.972656 436.585938 196.09375 435.710938 C 193.214844 434.839844 190.355469 433.894531 187.523438 432.882812 C 184.691406 431.867188 181.886719 430.785156 179.105469 429.632812 C 176.328125 428.484375 173.578125 427.265625 170.859375 425.976562 C 168.140625 424.691406 165.453125 423.339844 162.800781 421.921875 C 160.144531 420.503906 157.53125 419.019531 154.949219 417.472656 C 152.367188 415.929688 149.828125 414.320312 147.328125 412.648438 C 144.824219 410.976562 142.367188 409.246094 139.949219 407.453125 C 137.535156 405.660156 135.164062 403.808594 132.835938 401.902344 C 130.511719 399.992188 128.234375 398.027344 126.003906 396.007812 C 123.777344 393.988281 121.597656 391.914062 119.46875 389.785156 C 117.34375 387.660156 115.269531 385.480469 113.25 383.253906 C 111.230469 381.023438 109.265625 378.746094 107.355469 376.421875 C 105.445312 374.09375 103.597656 371.722656 101.804688 369.308594 C 100.011719 366.890625 98.28125 364.433594 96.609375 361.929688 C 94.9375 359.429688 93.328125 356.886719 91.78125 354.308594 C 90.234375 351.726562 88.753906 349.109375 87.335938 346.457031 C 85.917969 343.804688 84.566406 341.117188 83.277344 338.398438 C 81.992188 335.679688 80.773438 332.929688 79.621094 330.148438 C 78.472656 327.371094 77.390625 324.566406 76.375 321.730469 C 75.363281 318.898438 74.417969 316.042969 73.546875 313.164062 C 72.671875 310.285156 71.871094 307.386719 71.136719 304.46875 C 70.40625 301.550781 69.75 298.617188 69.160156 295.667969 C 68.574219 292.714844 68.0625 289.753906 67.621094 286.777344 C 67.179688 283.800781 66.808594 280.816406 66.515625 277.820312 C 66.21875 274.828125 66 271.828125 65.851562 268.824219 C 65.703125 265.820312 65.628906 262.8125 65.628906 259.804688 Z M 237.199219 480.390625 L 261.707031 480.390625 L 261.707031 541.667969 L 237.199219 541.667969 Z M 286.953125 683.824219 C 286.257812 684.21875 285.527344 684.542969 284.769531 684.796875 C 284.007812 685.046875 283.230469 685.226562 282.433594 685.324219 C 281.640625 685.425781 280.84375 685.449219 280.042969 685.390625 C 279.246094 685.335938 278.457031 685.203125 277.683594 684.992188 C 276.910156 684.78125 276.167969 684.496094 275.449219 684.140625 C 274.730469 683.785156 274.054688 683.363281 273.421875 682.871094 C 272.785156 682.382812 272.207031 681.835938 271.679688 681.234375 C 271.152344 680.632812 270.6875 679.984375 270.285156 679.289062 L 245.777344 636.886719 C 245.507812 636.425781 245.273438 635.945312 245.070312 635.453125 C 244.863281 634.960938 244.691406 634.457031 244.554688 633.941406 C 244.417969 633.425781 244.3125 632.902344 244.242188 632.371094 C 244.171875 631.84375 244.136719 631.3125 244.132812 630.777344 C 244.132812 630.246094 244.167969 629.710938 244.238281 629.183594 C 244.304688 628.652344 244.40625 628.128906 244.546875 627.613281 C 244.683594 627.097656 244.851562 626.59375 245.054688 626.101562 C 245.257812 625.605469 245.492188 625.128906 245.757812 624.664062 C 246.023438 624.199219 246.316406 623.757812 246.640625 623.332031 C 246.964844 622.90625 247.316406 622.503906 247.691406 622.125 C 248.066406 621.746094 248.464844 621.394531 248.890625 621.066406 C 249.3125 620.742188 249.753906 620.441406 250.214844 620.175781 C 250.675781 619.90625 251.152344 619.667969 251.644531 619.460938 C 252.136719 619.253906 252.640625 619.078125 253.15625 618.9375 C 253.671875 618.796875 254.191406 618.691406 254.722656 618.617188 C 255.25 618.546875 255.78125 618.507812 256.316406 618.503906 C 257.378906 618.378906 258.441406 618.378906 259.503906 618.503906 C 261.082031 618.925781 262.519531 619.636719 263.816406 620.636719 C 265.113281 621.636719 266.167969 622.84375 266.976562 624.265625 L 291.488281 666.667969 C 291.921875 667.375 292.28125 668.117188 292.566406 668.894531 C 292.847656 669.675781 293.050781 670.476562 293.171875 671.296875 C 293.292969 672.117188 293.328125 672.941406 293.285156 673.769531 C 293.238281 674.597656 293.109375 675.414062 292.894531 676.214844 C 292.683594 677.019531 292.394531 677.792969 292.023438 678.535156 C 291.65625 679.277344 291.214844 679.976562 290.707031 680.628906 C 290.195312 681.285156 289.621094 681.878906 288.992188 682.417969 C 288.359375 682.953125 287.679688 683.421875 286.953125 683.824219 Z M 396.511719 725.488281 L 347.492188 725.488281 C 346.6875 725.488281 345.890625 725.410156 345.101562 725.253906 C 344.3125 725.097656 343.546875 724.863281 342.800781 724.558594 C 342.058594 724.25 341.351562 723.871094 340.683594 723.425781 C 340.015625 722.976562 339.394531 722.46875 338.828125 721.902344 C 338.257812 721.332031 337.75 720.710938 337.300781 720.042969 C 336.855469 719.375 336.476562 718.667969 336.171875 717.925781 C 335.863281 717.179688 335.628906 716.414062 335.472656 715.625 C 335.316406 714.835938 335.238281 714.039062 335.238281 713.234375 C 335.238281 712.429688 335.316406 711.632812 335.472656 710.84375 C 335.628906 710.054688 335.863281 709.289062 336.171875 708.546875 C 336.476562 707.800781 336.855469 707.097656 337.300781 706.425781 C 337.75 705.757812 338.257812 705.136719 338.828125 704.570312 C 339.394531 704 340.015625 703.492188 340.683594 703.046875 C 341.351562 702.597656 342.058594 702.222656 342.800781 701.914062 C 343.546875 701.605469 344.3125 701.371094 345.101562 701.214844 C 345.890625 701.058594 346.6875 700.980469 347.492188 700.980469 L 396.511719 700.980469 C 397.316406 700.980469 398.113281 701.058594 398.902344 701.214844 C 399.691406 701.371094 400.457031 701.605469 401.203125 701.914062 C 401.945312 702.222656 402.652344 702.597656 403.320312 703.046875 C 403.988281 703.492188 404.609375 704 405.175781 704.570312 C 405.746094 705.136719 406.253906 705.757812 406.703125 706.425781 C 407.148438 707.097656 407.527344 707.800781 407.832031 708.546875 C 408.140625 709.289062 408.375 710.054688 408.53125 710.84375 C 408.6875 711.632812 408.765625 712.429688 408.765625 713.234375 C 408.765625 714.039062 408.6875 714.835938 408.53125 715.625 C 408.375 716.414062 408.140625 717.179688 407.832031 717.925781 C 407.527344 718.667969 407.148438 719.375 406.703125 720.042969 C 406.253906 720.710938 405.746094 721.332031 405.175781 721.902344 C 404.609375 722.46875 403.988281 722.976562 403.320312 723.425781 C 402.652344 723.871094 401.945312 724.25 401.203125 724.558594 C 400.457031 724.863281 399.691406 725.097656 398.902344 725.253906 C 398.113281 725.410156 397.316406 725.488281 396.511719 725.488281 Z M 498.226562 636.886719 L 473.71875 679.289062 C 473.316406 679.984375 472.855469 680.632812 472.324219 681.234375 C 471.796875 681.835938 471.21875 682.382812 470.582031 682.871094 C 469.949219 683.363281 469.273438 683.785156 468.554688 684.140625 C 467.835938 684.496094 467.09375 684.78125 466.320312 684.992188 C 465.546875 685.203125 464.761719 685.335938 463.960938 685.390625 C 463.160156 685.449219 462.363281 685.425781 461.570312 685.324219 C 460.773438 685.226562 459.996094 685.046875 459.238281 684.796875 C 458.476562 684.542969 457.746094 684.21875 457.050781 683.824219 C 456.347656 683.421875 455.691406 682.957031 455.082031 682.429688 C 454.472656 681.898438 453.921875 681.3125 453.425781 680.671875 C 452.933594 680.035156 452.503906 679.351562 452.144531 678.628906 C 451.785156 677.90625 451.5 677.152344 451.289062 676.371094 C 451.078125 675.59375 450.945312 674.800781 450.894531 673.992188 C 450.839844 673.1875 450.863281 672.382812 450.96875 671.582031 C 451.074219 670.78125 451.257812 669.996094 451.519531 669.230469 C 451.777344 668.464844 452.113281 667.734375 452.515625 667.035156 L 477.027344 624.632812 C 477.839844 623.210938 478.890625 622.003906 480.1875 621.003906 C 481.484375 620.003906 482.921875 619.296875 484.503906 618.871094 C 485.5625 618.746094 486.625 618.746094 487.6875 618.871094 C 488.222656 618.875 488.753906 618.914062 489.28125 618.984375 C 489.8125 619.058594 490.332031 619.164062 490.847656 619.308594 C 491.363281 619.449219 491.867188 619.621094 492.359375 619.828125 C 492.851562 620.035156 493.328125 620.273438 493.789062 620.542969 C 494.25 620.8125 494.691406 621.109375 495.113281 621.4375 C 495.539062 621.761719 495.9375 622.117188 496.3125 622.496094 C 496.6875 622.875 497.039062 623.273438 497.363281 623.699219 C 497.6875 624.125 497.980469 624.570312 498.246094 625.03125 C 498.511719 625.496094 498.746094 625.972656 498.949219 626.46875 C 499.152344 626.960938 499.320312 627.464844 499.460938 627.980469 C 499.597656 628.5 499.699219 629.019531 499.769531 629.550781 C 499.835938 630.082031 499.871094 630.613281 499.871094 631.144531 C 499.867188 631.679688 499.832031 632.210938 499.761719 632.742188 C 499.691406 633.269531 499.589844 633.792969 499.449219 634.308594 C 499.3125 634.824219 499.140625 635.328125 498.933594 635.820312 C 498.730469 636.316406 498.496094 636.792969 498.226562 637.253906 Z M 506.804688 541.667969 L 482.296875 541.667969 L 482.296875 480.390625 L 506.804688 480.390625 Z M 506.804688 541.667969 " fill-opacity="1" fill-rule="nonzero"/></svg>